<svg width="14" height="14" viewBox="0 0 14 14" fill="none" xmlns="http://www.w3.org/2000/svg">
<path d="M0.604267 0.395733C0.994791 0.00520866 1.62796 0.00520898 2.01848 0.395733L7.10772 5.48497L12.0927 0.500004C12.4814 0.111311 13.1112 0.11136 13.5 0.500004C13.8888 0.888775 13.8894 1.51921 13.5007 1.908L8.51571 6.89297L13.6043 11.9815C13.9948 12.372 13.9948 13.0052 13.6043 13.3957L13.3957 13.6043C13.0052 13.9947 12.372 13.9948 11.9815 13.6043L6.89296 8.51572L1.90799 13.5007C1.51918 13.8892 0.888677 13.8887 0.499996 13.5C0.111442 13.1113 0.111575 12.4815 0.499996 12.0927L5.48496 7.10772L0.395725 2.01849C0.00523245 1.628 0.00529471 0.994807 0.395725 0.604275L0.604267 0.395733Z" fill="#666666"/>
</svg>
