<svg width="16" height="16" viewBox="0 0 16 16" fill="none" xmlns="http://www.w3.org/2000/svg">
<path d="M0 10C0 9.44771 0.447715 9 1 9C1.55228 9 2 9.44771 2 10V11C2 12.6569 3.34315 14 5 14H6C6.55228 14 7 14.4477 7 15C7 15.5523 6.55228 16 6 16H5C2.23858 16 0 13.7614 0 11V10ZM16 11C16 13.7614 13.7614 16 11 16H10C9.44771 16 9 15.5523 9 15C9 14.4477 9.44771 14 10 14H11C12.6569 14 14 12.6569 14 11V10C14 9.44771 14.4477 9 15 9C15.5523 9 16 9.44771 16 10V11ZM6 0C6.55228 0 7 0.447715 7 1C7 1.55228 6.55228 2 6 2H5C3.34315 2 2 3.34315 2 5V6C2 6.55228 1.55228 7 1 7C0.447715 7 0 6.55228 0 6V5C0 2.23858 2.23858 0 5 0H6ZM11 0C13.7614 0 16 2.23858 16 5V6C16 6.55228 15.5523 7 15 7C14.4477 7 14 6.55228 14 6V5C14 3.34315 12.6569 2 11 2H10C9.44771 2 9 1.55228 9 1C9 0.447715 9.44771 0 10 0H11Z" fill="#666666"/>
</svg>
