<svg width="125" height="129" viewBox="0 0 125 129" fill="none" xmlns="http://www.w3.org/2000/svg">
<rect width="125" height="125" rx="22.5" fill="white"/>
<g filter="url(#filter0_d_67_315)">
<rect x="7" y="8" width="110" height="110" rx="16.5948" fill="#E6E6E6"/>
</g>
<g clip-path="url(#clip0_67_315)">
<path d="M23.9753 23.9955C38.6199 9.35095 62.3638 9.35107 77.0085 23.9955C90.4128 37.3998 91.5455 58.4249 80.4118 73.1205L109.044 101.753C111.396 104.106 111.396 107.92 109.044 110.272C106.691 112.624 102.878 112.624 100.525 110.272L71.698 81.4448C57.092 91.4822 36.9586 90.012 23.9753 77.0287C9.3309 62.3841 9.33091 38.6402 23.9753 23.9955ZM69.7751 31.2289C59.1254 20.5794 41.8583 20.5793 31.2087 31.2289C20.5593 41.8786 20.5593 59.1457 31.2087 69.7953C41.5087 80.0954 57.9973 80.4317 68.7038 70.808C68.8331 70.6494 68.972 70.4959 69.1198 70.3481C69.343 70.125 69.579 69.9224 69.8259 69.7416C80.4235 59.0878 80.4074 41.8613 69.7751 31.2289Z" fill="#333333"/>
</g>
<defs>
<filter id="filter0_d_67_315" x="0" y="4.7931" width="124" height="124" filterUnits="userSpaceOnUse" color-interpolation-filters="sRGB">
<feFlood flood-opacity="0" result="BackgroundImageFix"/>
<feColorMatrix in="SourceAlpha" type="matrix" values="0 0 0 0 0 0 0 0 0 0 0 0 0 0 0 0 0 0 127 0" result="hardAlpha"/>
<feMorphology radius="2" operator="dilate" in="SourceAlpha" result="effect1_dropShadow_67_315"/>
<feOffset dy="3.7931"/>
<feGaussianBlur stdDeviation="2.5"/>
<feComposite in2="hardAlpha" operator="out"/>
<feColorMatrix type="matrix" values="0 0 0 0 0 0 0 0 0 0 0 0 0 0 0 0 0 0 0.25 0"/>
<feBlend mode="normal" in2="BackgroundImageFix" result="effect1_dropShadow_67_315"/>
<feBlend mode="normal" in="SourceGraphic" in2="effect1_dropShadow_67_315" result="shape"/>
</filter>
<clipPath id="clip0_67_315">
<rect width="98.9583" height="100" fill="white" transform="translate(13 13)"/>
</clipPath>
</defs>
</svg>
