<svg width="125" height="129" viewBox="0 0 125 129" fill="none" xmlns="http://www.w3.org/2000/svg">
<rect width="125" height="125" rx="22.5" fill="white"/>
<g filter="url(#filter0_d_37_1048)">
<rect x="4" y="5" width="116" height="116" rx="17.5" fill="#E6E6E6"/>
</g>
<path d="M62.0002 18.6818C86.4764 18.6819 106.319 38.524 106.319 63.0002C106.318 87.4763 86.4763 107.318 62.0002 107.319C37.524 107.319 17.6819 87.4764 17.6818 63.0002C17.6818 38.5239 37.5239 18.6818 62.0002 18.6818ZM62.0002 34.591C46.3103 34.591 33.591 47.3103 33.591 63.0002C33.5911 78.69 46.3103 91.4094 62.0002 91.4094C77.6899 91.4093 90.4093 78.6899 90.4094 63.0002C90.4094 47.3103 77.69 34.5911 62.0002 34.591Z" fill="#333333"/>
<rect x="50.6364" y="13" width="22.7273" height="20.4545" rx="10.2273" fill="#333333"/>
<rect x="73.3636" y="113" width="22.7273" height="20.4545" rx="10.2273" transform="rotate(-180 73.3636 113)" fill="#333333"/>
<rect x="12" y="74.3636" width="22.7273" height="20.4545" rx="10.2273" transform="rotate(-90 12 74.3636)" fill="#333333"/>
<rect x="112" y="51.6364" width="22.7273" height="20.4545" rx="10.2273" transform="rotate(90 112 51.6364)" fill="#333333"/>
<rect x="89.32" y="19.6094" width="22.7273" height="20.4545" rx="10.2273" transform="rotate(45 89.32 19.6094)" fill="#333333"/>
<rect x="34.68" y="106.391" width="22.7273" height="20.4545" rx="10.2273" transform="rotate(-135 34.68 106.391)" fill="#333333"/>
<rect x="18.6094" y="35.68" width="22.7273" height="20.4545" rx="10.2273" transform="rotate(-45 18.6094 35.68)" fill="#333333"/>
<rect x="105.391" y="90.3201" width="22.7273" height="20.4545" rx="10.2273" transform="rotate(135 105.391 90.3201)" fill="#333333"/>
<rect x="66.5455" y="57.3182" width="23.8636" height="10.2273" fill="#333333"/>
<rect x="41.5455" y="86.4666" width="25.5682" height="10.2273" transform="rotate(-60 41.5455 86.4666)" fill="#333333"/>
<rect x="54.607" y="61.1914" width="25.5682" height="10.2273" transform="rotate(-120 54.607 61.1914)" fill="#333333"/>
<path d="M61.9996 55.0455C66.3926 55.0455 69.9544 58.6066 69.9547 62.9996C69.9547 67.3927 66.3927 70.9547 61.9996 70.9547C57.6066 70.9544 54.0455 67.3926 54.0455 62.9996C54.0457 58.6068 57.6068 55.0457 61.9996 55.0455ZM61.9996 58.4547C59.4895 58.4549 57.4549 60.4895 57.4547 62.9996C57.4547 65.5098 59.4894 67.5452 61.9996 67.5455C64.51 67.5455 66.5455 65.51 66.5455 62.9996C66.5452 60.4894 64.5098 58.4547 61.9996 58.4547Z" fill="#333333"/>
<defs>
<filter id="filter0_d_37_1048" x="0" y="5" width="124" height="124" filterUnits="userSpaceOnUse" color-interpolation-filters="sRGB">
<feFlood flood-opacity="0" result="BackgroundImageFix"/>
<feColorMatrix in="SourceAlpha" type="matrix" values="0 0 0 0 0 0 0 0 0 0 0 0 0 0 0 0 0 0 127 0" result="hardAlpha"/>
<feOffset dy="4"/>
<feGaussianBlur stdDeviation="2"/>
<feComposite in2="hardAlpha" operator="out"/>
<feColorMatrix type="matrix" values="0 0 0 0 0 0 0 0 0 0 0 0 0 0 0 0 0 0 0.25 0"/>
<feBlend mode="normal" in2="BackgroundImageFix" result="effect1_dropShadow_37_1048"/>
<feBlend mode="normal" in="SourceGraphic" in2="effect1_dropShadow_37_1048" result="shape"/>
</filter>
</defs>
</svg>
