<svg width="125" height="129" viewBox="0 0 125 129" fill="none" xmlns="http://www.w3.org/2000/svg">
<rect width="125" height="125" rx="22.5" fill="white"/>
<g filter="url(#filter0_d_37_1048)">
<rect x="7" y="8" width="110" height="110" rx="16.5948" fill="#E6E6E6"/>
</g>
<path d="M62 8C64.7614 8 67 10.2386 67 13V18.2773C71.5875 18.7845 75.9663 19.9813 80.0322 21.7617L82.6709 17.1982C84.0528 14.8076 87.1112 13.9894 89.502 15.3711C91.8926 16.753 92.7108 19.8114 91.3291 22.2021L88.6895 26.7686C92.3277 29.4531 95.5459 32.6724 98.2305 36.3105L102.798 33.6709C105.189 32.2892 108.247 33.1074 109.629 35.498C111.011 37.8887 110.193 40.9471 107.803 42.3291L103.237 44.9668C105.018 49.033 106.214 53.4121 106.722 58H112C114.761 58 117 60.2386 117 63C117 65.7614 114.761 68 112 68H106.722C106.215 72.5876 105.018 76.9663 103.237 81.0322L107.803 83.6709C110.193 85.0529 111.011 88.1113 109.629 90.502C108.247 92.8926 105.189 93.7108 102.798 92.3291L98.2305 89.6885C95.5458 93.327 92.327 96.5458 88.6885 99.2305L91.3291 103.798C92.7108 106.189 91.8926 109.247 89.502 110.629C87.1113 112.011 84.0529 111.193 82.6709 108.803L80.0322 104.237C75.9663 106.018 71.5876 107.215 67 107.722V113C67 115.761 64.7614 118 62 118C59.2386 118 57 115.761 57 113V107.722C52.4109 107.214 48.031 106.017 43.9639 104.235L41.3301 108.8C39.9496 111.191 36.8914 112.011 34.5 110.631C32.1088 109.25 31.2898 106.192 32.6699 103.801L35.3076 99.2295C31.6704 96.5453 28.4525 93.3269 25.7686 89.6895L21.2021 92.3291C18.8115 93.7108 15.753 92.8925 14.3711 90.502C12.9894 88.1112 13.8076 85.0528 16.1982 83.6709L20.7617 81.0322C18.9813 76.9664 17.7855 72.5875 17.2783 68H12C9.23858 68 7 65.7614 7 63C7 60.2386 9.23858 58 12 58H17.2783C17.7855 53.4122 18.9811 49.0329 20.7617 44.9668L16.1982 42.3291C13.8076 40.9472 12.9894 37.8888 14.3711 35.498C15.753 33.1075 18.8115 32.2892 21.2021 33.6709L25.7686 36.3096C28.4524 32.6724 31.6706 29.4546 35.3076 26.7705L32.6699 22.2002C31.2896 19.8088 32.1088 16.7507 34.5 15.3701C36.8914 13.9898 39.9495 14.809 41.3301 17.2002L43.9639 21.7637C48.0309 19.9823 52.411 18.7847 57 18.2773V13C57 10.2386 59.2386 8 62 8ZM76.1455 68C74.0862 73.8258 68.531 78 62 78C61.0616 78 60.1436 77.9129 59.2529 77.748L49.0029 95.5059C53.0214 97.1141 57.4071 98 62 98C79.6322 98 94.2163 84.9613 96.6426 68H76.1455ZM40.3467 35.5C32.2181 41.9092 27 51.8453 27 63C27 74.1545 32.2184 84.0898 40.3467 90.499L50.5957 72.7432C48.3542 70.122 47 66.7193 47 63C47 59.2804 48.3539 55.8771 50.5957 53.2559L40.3467 35.5ZM62 58C61.1584 58 60.3658 58.2089 59.6699 58.5762C59.6139 58.6115 59.5578 58.6473 59.5 58.6807C59.444 58.713 59.3868 58.7425 59.3301 58.7725C57.93 59.6586 57 61.2205 57 63C57 64.7836 57.9344 66.3484 59.3398 67.2334C59.3932 67.2617 59.4472 67.2899 59.5 67.3203C59.5567 67.353 59.6121 67.3873 59.667 67.4219C60.3636 67.7902 61.1571 68 62 68C64.7614 68 67 65.7614 67 63C67 60.2386 64.7614 58 62 58ZM62 28C57.4073 28 53.0213 28.885 49.0029 30.4932L59.2529 48.251C60.1435 48.0861 61.0617 48 62 48C68.531 48 74.0862 52.1742 76.1455 58H96.6426C94.2163 41.0387 79.6322 28 62 28Z" fill="#333333"/>
<defs>
<filter id="filter0_d_37_1048" x="0" y="4.7931" width="124" height="124" filterUnits="userSpaceOnUse" color-interpolation-filters="sRGB">
<feFlood flood-opacity="0" result="BackgroundImageFix"/>
<feColorMatrix in="SourceAlpha" type="matrix" values="0 0 0 0 0 0 0 0 0 0 0 0 0 0 0 0 0 0 127 0" result="hardAlpha"/>
<feMorphology radius="2" operator="dilate" in="SourceAlpha" result="effect1_dropShadow_37_1048"/>
<feOffset dy="3.7931"/>
<feGaussianBlur stdDeviation="2.5"/>
<feComposite in2="hardAlpha" operator="out"/>
<feColorMatrix type="matrix" values="0 0 0 0 0 0 0 0 0 0 0 0 0 0 0 0 0 0 0.25 0"/>
<feBlend mode="normal" in2="BackgroundImageFix" result="effect1_dropShadow_37_1048"/>
<feBlend mode="normal" in="SourceGraphic" in2="effect1_dropShadow_37_1048" result="shape"/>
</filter>
</defs>
</svg>
