<svg width="85" height="20" viewBox="0 0 85 20" fill="none" xmlns="http://www.w3.org/2000/svg">
<path d="M13.1493 0.769423C12.9823 0.517576 13.2155 0.179342 13.4971 0.288818C17.302 1.76783 19.9998 5.46675 19.9998 9.79883C19.9997 15.4328 15.4378 20 9.81035 20C5.48332 20 1.78898 17.299 0.311698 13.4896C0.202413 13.2078 0.541024 12.9748 0.792777 13.1421C2.20308 14.0791 3.89428 14.6259 5.71367 14.626C10.6389 14.626 14.6316 10.6282 14.6316 5.69727C14.6316 3.87525 14.0855 2.18162 13.1493 0.769423Z" fill="#DBA2FA"/>
<path d="M6.31929 1.74096C6.48245 1.51874 6.83306 1.60697 6.87187 1.88001L7.24919 4.53418C7.26083 4.61606 7.30492 4.68982 7.37153 4.73884L9.52987 6.32719C9.75182 6.49053 9.66388 6.84083 9.39116 6.87969L6.73918 7.25757C6.65733 7.26923 6.58364 7.31335 6.53471 7.37999L4.94873 9.54011C4.78557 9.76233 4.43496 9.6741 4.39614 9.40105L4.01883 6.74689C4.00719 6.66501 3.9631 6.59125 3.89649 6.54223L1.73815 4.95387C1.51619 4.79053 1.60414 4.44023 1.87686 4.40137L4.52884 4.0235C4.61068 4.01184 4.68438 3.96771 4.7333 3.90107L6.31929 1.74096Z" fill="#DBA2FA"/>
<path d="M24.072 13.12C23.72 13.12 23.4133 13.0533 23.152 12.92C22.896 12.7867 22.696 12.5947 22.552 12.344C22.4133 12.088 22.344 11.7867 22.344 11.44V8.80001C22.344 8.44801 22.4133 8.14668 22.552 7.89601C22.696 7.64534 22.896 7.45334 23.152 7.32001C23.4133 7.18668 23.72 7.12001 24.072 7.12001C24.424 7.12001 24.728 7.18934 24.984 7.32801C25.24 7.46134 25.4373 7.65334 25.576 7.90401C25.7147 8.15468 25.784 8.45334 25.784 8.80001H25.064C25.064 8.46934 24.976 8.21601 24.8 8.04001C24.6293 7.85868 24.3867 7.76801 24.072 7.76801C23.7573 7.76801 23.5093 7.85601 23.328 8.03201C23.152 8.20801 23.064 8.46134 23.064 8.79201V11.44C23.064 11.7707 23.152 12.0267 23.328 12.208C23.5093 12.384 23.7573 12.472 24.072 12.472C24.3867 12.472 24.6293 12.384 24.8 12.208C24.976 12.0267 25.064 11.7707 25.064 11.44H25.784C25.784 11.7813 25.7147 12.08 25.576 12.336C25.4373 12.5867 25.24 12.7813 24.984 12.92C24.728 13.0533 24.424 13.12 24.072 13.12ZM28.8369 13.104C28.4849 13.104 28.1809 13.0373 27.9249 12.904C27.6689 12.7707 27.4689 12.5787 27.3249 12.328C27.1862 12.072 27.1169 11.7707 27.1169 11.424V10.256C27.1169 9.90401 27.1862 9.60267 27.3249 9.35201C27.4689 9.10134 27.6689 8.90934 27.9249 8.77601C28.1809 8.64267 28.4849 8.57601 28.8369 8.57601C29.1889 8.57601 29.4929 8.64267 29.7489 8.77601C30.0049 8.90934 30.2022 9.10134 30.3409 9.35201C30.4849 9.60267 30.5569 9.90134 30.5569 10.248V11.424C30.5569 11.7707 30.4849 12.072 30.3409 12.328C30.2022 12.5787 30.0049 12.7707 29.7489 12.904C29.4929 13.0373 29.1889 13.104 28.8369 13.104ZM28.8369 12.464C29.1515 12.464 29.3969 12.376 29.5729 12.2C29.7489 12.024 29.8369 11.7653 29.8369 11.424V10.256C29.8369 9.91467 29.7489 9.65601 29.5729 9.48001C29.3969 9.30401 29.1515 9.21601 28.8369 9.21601C28.5275 9.21601 28.2822 9.30401 28.1009 9.48001C27.9249 9.65601 27.8369 9.91467 27.8369 10.256V11.424C27.8369 11.7653 27.9249 12.024 28.1009 12.2C28.2822 12.376 28.5275 12.464 28.8369 12.464ZM31.9697 13.04V8.64001H32.6897V9.48001H32.8417L32.6897 9.64801C32.6897 9.30134 32.7937 9.03467 33.0017 8.84801C33.2097 8.65601 33.4977 8.56001 33.8657 8.56001C34.3084 8.56001 34.6604 8.69601 34.9217 8.96801C35.1831 9.24001 35.3137 9.61068 35.3137 10.08V13.04H34.5937V10.16C34.5937 9.84534 34.5084 9.60534 34.3377 9.44001C34.1724 9.26934 33.9457 9.18401 33.6577 9.18401C33.3591 9.18401 33.1217 9.27468 32.9457 9.45601C32.7751 9.63734 32.6897 9.89867 32.6897 10.24V13.04H31.9697ZM38.2946 13.104C37.996 13.104 37.7346 13.0587 37.5106 12.968C37.292 12.872 37.116 12.7387 36.9826 12.568C36.8546 12.3973 36.7773 12.1947 36.7506 11.96H37.4706C37.5026 12.1147 37.588 12.2373 37.7266 12.328C37.8706 12.4187 38.06 12.464 38.2946 12.464H38.6306C38.9133 12.464 39.124 12.408 39.2626 12.296C39.4013 12.1787 39.4706 12.024 39.4706 11.832C39.4706 11.6453 39.4066 11.4987 39.2786 11.392C39.156 11.28 38.972 11.2053 38.7266 11.168L38.1346 11.072C37.7026 10.9973 37.38 10.864 37.1666 10.672C36.9586 10.4747 36.8546 10.1893 36.8546 9.81601C36.8546 9.42134 36.98 9.11734 37.2306 8.90401C37.4813 8.68534 37.8573 8.57601 38.3586 8.57601H38.6626C39.084 8.57601 39.4226 8.67467 39.6786 8.87201C39.9346 9.06934 40.0893 9.33601 40.1426 9.67201H39.4226C39.3906 9.53334 39.3106 9.42401 39.1826 9.34401C39.0546 9.25868 38.8813 9.21601 38.6626 9.21601H38.3586C38.0866 9.21601 37.8866 9.26668 37.7586 9.36801C37.636 9.46934 37.5746 9.62134 37.5746 9.82401C37.5746 10.0053 37.628 10.1387 37.7346 10.224C37.8413 10.3093 38.0093 10.3707 38.2386 10.408L38.8306 10.504C39.3053 10.5787 39.6493 10.7173 39.8626 10.92C40.0813 11.1227 40.1906 11.416 40.1906 11.8C40.1906 12.2053 40.06 12.5253 39.7986 12.76C39.5426 12.9893 39.1533 13.104 38.6306 13.104H38.2946ZM43.7075 13.04C43.3288 13.04 43.0328 12.9387 42.8195 12.736C42.6115 12.5333 42.5075 12.248 42.5075 11.88V9.29601H41.2675V8.64001H42.5075V7.40001H43.2275V8.64001H44.9875V9.29601H43.2275V11.88C43.2275 12.216 43.3875 12.384 43.7075 12.384H44.9075V13.04H43.7075ZM48.0244 13.12C47.6777 13.12 47.3737 13.0507 47.1124 12.912C46.8564 12.7733 46.6564 12.5787 46.5124 12.328C46.3737 12.072 46.3044 11.776 46.3044 11.44V10.24C46.3044 9.89867 46.3737 9.60267 46.5124 9.35201C46.6564 9.10134 46.8564 8.90668 47.1124 8.76801C47.3737 8.62934 47.6777 8.56001 48.0244 8.56001C48.371 8.56001 48.6724 8.62934 48.9284 8.76801C49.1897 8.90668 49.3897 9.10134 49.5284 9.35201C49.6724 9.60267 49.7444 9.89867 49.7444 10.24V11.016H47.0084V11.44C47.0084 11.7867 47.0964 12.0533 47.2724 12.24C47.4484 12.4213 47.699 12.512 48.0244 12.512C48.3017 12.512 48.5257 12.464 48.6964 12.368C48.867 12.2667 48.971 12.1173 49.0084 11.92H49.7284C49.6804 12.288 49.499 12.5813 49.1844 12.8C48.875 13.0133 48.4884 13.12 48.0244 13.12ZM49.0404 10.536V10.24C49.0404 9.89334 48.9524 9.62668 48.7764 9.44001C48.6057 9.25334 48.355 9.16001 48.0244 9.16001C47.699 9.16001 47.4484 9.25334 47.2724 9.44001C47.0964 9.62668 47.0084 9.89334 47.0084 10.24V10.472H49.0964L49.0404 10.536ZM53.4212 13.04C53.1652 13.04 52.9412 12.9893 52.7492 12.888C52.5572 12.7867 52.4079 12.6427 52.3012 12.456C52.1946 12.2693 52.1412 12.0507 52.1412 11.8V7.85601H50.6612V7.20001H52.8612V11.8C52.8612 11.9813 52.9119 12.1253 53.0132 12.232C53.1146 12.3333 53.2506 12.384 53.4212 12.384H54.8212V13.04H53.4212ZM58.2181 13.04C57.9621 13.04 57.7381 12.9893 57.5461 12.888C57.3541 12.7867 57.2048 12.6427 57.0981 12.456C56.9915 12.2693 56.9381 12.0507 56.9381 11.8V7.85601H55.4581V7.20001H57.6581V11.8C57.6581 11.9813 57.7088 12.1253 57.8101 12.232C57.9115 12.3333 58.0475 12.384 58.2181 12.384H59.6181V13.04H58.2181ZM62.031 13.12C61.567 13.12 61.2017 13.0027 60.935 12.768C60.6683 12.528 60.535 12.2053 60.535 11.8C60.535 11.3893 60.6683 11.0667 60.935 10.832C61.2017 10.5973 61.5617 10.48 62.015 10.48H63.375V10.04C63.375 9.76801 63.2923 9.56001 63.127 9.41601C62.967 9.26667 62.7377 9.19201 62.439 9.19201C62.1777 9.19201 61.959 9.24801 61.783 9.36001C61.607 9.46668 61.5057 9.61334 61.479 9.80001H60.759C60.807 9.42134 60.9857 9.12001 61.295 8.89601C61.6043 8.67201 61.991 8.56001 62.455 8.56001C62.9617 8.56001 63.3617 8.69068 63.655 8.95201C63.9483 9.21334 64.095 9.56801 64.095 10.016V13.04H63.391V12.2H63.271L63.391 12.08C63.391 12.4 63.2657 12.6533 63.015 12.84C62.7697 13.0267 62.4417 13.12 62.031 13.12ZM62.207 12.552C62.5483 12.552 62.8283 12.4667 63.047 12.296C63.2657 12.1253 63.375 11.9067 63.375 11.64V11.016H62.031C61.791 11.016 61.6017 11.0827 61.463 11.216C61.3243 11.3493 61.255 11.5307 61.255 11.76C61.255 12.0053 61.3377 12.2 61.503 12.344C61.6737 12.4827 61.9083 12.552 62.207 12.552ZM67.6919 13.04C67.3132 13.04 67.0172 12.9387 66.8039 12.736C66.5959 12.5333 66.4919 12.248 66.4919 11.88V9.29601H65.2519V8.64001H66.4919V7.40001H67.2119V8.64001H68.9719V9.29601H67.2119V11.88C67.2119 12.216 67.3719 12.384 67.6919 12.384H68.8919V13.04H67.6919ZM70.2887 13.04V12.384H71.8487V9.29601H70.4887V8.64001H72.5687V12.384H74.0487V13.04H70.2887ZM72.1287 7.84801C71.9527 7.84801 71.8141 7.80267 71.7127 7.71201C71.6114 7.62134 71.5607 7.49868 71.5607 7.34401C71.5607 7.18401 71.6114 7.05867 71.7127 6.96801C71.8141 6.87201 71.9527 6.82401 72.1287 6.82401C72.3047 6.82401 72.4434 6.87201 72.5447 6.96801C72.6461 7.05867 72.6967 7.18401 72.6967 7.34401C72.6967 7.49868 72.6461 7.62134 72.5447 7.71201C72.4434 7.80267 72.3047 7.84801 72.1287 7.84801ZM76.8056 13.104C76.4536 13.104 76.1496 13.0373 75.8936 12.904C75.6376 12.7707 75.4376 12.5787 75.2936 12.328C75.155 12.072 75.0856 11.7707 75.0856 11.424V10.256C75.0856 9.90401 75.155 9.60267 75.2936 9.35201C75.4376 9.10134 75.6376 8.90934 75.8936 8.77601C76.1496 8.64267 76.4536 8.57601 76.8056 8.57601C77.1576 8.57601 77.4616 8.64267 77.7176 8.77601C77.9736 8.90934 78.171 9.10134 78.3096 9.35201C78.4536 9.60267 78.5256 9.90134 78.5256 10.248V11.424C78.5256 11.7707 78.4536 12.072 78.3096 12.328C78.171 12.5787 77.9736 12.7707 77.7176 12.904C77.4616 13.0373 77.1576 13.104 76.8056 13.104ZM76.8056 12.464C77.1203 12.464 77.3656 12.376 77.5416 12.2C77.7176 12.024 77.8056 11.7653 77.8056 11.424V10.256C77.8056 9.91467 77.7176 9.65601 77.5416 9.48001C77.3656 9.30401 77.1203 9.21601 76.8056 9.21601C76.4963 9.21601 76.251 9.30401 76.0696 9.48001C75.8936 9.65601 75.8056 9.91467 75.8056 10.256V11.424C75.8056 11.7653 75.8936 12.024 76.0696 12.2C76.251 12.376 76.4963 12.464 76.8056 12.464ZM79.9385 13.04V8.64001H80.6585V9.48001H80.8105L80.6585 9.64801C80.6585 9.30134 80.7625 9.03467 80.9705 8.84801C81.1785 8.65601 81.4665 8.56001 81.8345 8.56001C82.2772 8.56001 82.6292 8.69601 82.8905 8.96801C83.1518 9.24001 83.2825 9.61068 83.2825 10.08V13.04H82.5625V10.16C82.5625 9.84534 82.4772 9.60534 82.3065 9.44001C82.1412 9.26934 81.9145 9.18401 81.6265 9.18401C81.3278 9.18401 81.0905 9.27468 80.9145 9.45601C80.7438 9.63734 80.6585 9.89867 80.6585 10.24V13.04H79.9385Z" fill="#DBA2FA"/>
</svg>
