<svg width="86" height="22" viewBox="0 0 86 22" fill="none" xmlns="http://www.w3.org/2000/svg">
<rect x="1" y="1" width="20" height="20" rx="4" fill="#29314F" stroke="#7B588F"/>
<path d="M12.7447 6.22859C12.6404 6.06218 12.7935 5.8429 12.975 5.9181C14.9291 6.7279 16.3038 8.65215 16.3039 10.8992C16.3039 13.8772 13.8903 16.2915 10.9123 16.2918C8.66514 16.2918 6.74025 14.9171 5.9303 12.9628C5.85509 12.7814 6.07437 12.6282 6.24078 12.7326C6.96644 13.1877 7.82464 13.4509 8.74437 13.4509C11.3505 13.4507 13.4629 11.3384 13.4631 8.73219C13.4631 7.81247 13.1998 6.95425 12.7447 6.22859Z" fill="#DBA2FA"/>
<path d="M9.01041 6.7136C9.11653 6.56924 9.34432 6.6265 9.36957 6.80388L9.55422 8.10128C9.56179 8.15449 9.59046 8.20241 9.63377 8.23425L10.6897 9.0104C10.834 9.11651 10.7768 9.34431 10.5994 9.36955L9.302 9.55421C9.24878 9.56178 9.20086 9.59045 9.16903 9.63376L8.39287 10.6897C8.28676 10.834 8.05896 10.7768 8.03372 10.5994L7.84907 9.30198C7.8415 9.24877 7.81282 9.20085 7.76952 9.16902L6.71361 8.39286C6.56926 8.28675 6.62651 8.05895 6.80389 8.03371L8.10129 7.84906C8.1545 7.84148 8.20243 7.81281 8.23426 7.76951L9.01041 6.7136Z" fill="#DBA2FA"/>
<path d="M25.072 14.12C24.72 14.12 24.4133 14.0533 24.152 13.92C23.896 13.7867 23.696 13.5947 23.552 13.344C23.4133 13.088 23.344 12.7867 23.344 12.44V9.80001C23.344 9.44801 23.4133 9.14668 23.552 8.89601C23.696 8.64534 23.896 8.45334 24.152 8.32001C24.4133 8.18668 24.72 8.12001 25.072 8.12001C25.424 8.12001 25.728 8.18934 25.984 8.32801C26.24 8.46134 26.4373 8.65334 26.576 8.90401C26.7147 9.15468 26.784 9.45334 26.784 9.80001H26.064C26.064 9.46934 25.976 9.21601 25.8 9.04001C25.6293 8.85868 25.3867 8.76801 25.072 8.76801C24.7573 8.76801 24.5093 8.85601 24.328 9.03201C24.152 9.20801 24.064 9.46134 24.064 9.79201V12.44C24.064 12.7707 24.152 13.0267 24.328 13.208C24.5093 13.384 24.7573 13.472 25.072 13.472C25.3867 13.472 25.6293 13.384 25.8 13.208C25.976 13.0267 26.064 12.7707 26.064 12.44H26.784C26.784 12.7813 26.7147 13.08 26.576 13.336C26.4373 13.5867 26.24 13.7813 25.984 13.92C25.728 14.0533 25.424 14.12 25.072 14.12ZM29.8369 14.104C29.4849 14.104 29.1809 14.0373 28.9249 13.904C28.6689 13.7707 28.4689 13.5787 28.3249 13.328C28.1862 13.072 28.1169 12.7707 28.1169 12.424V11.256C28.1169 10.904 28.1862 10.6027 28.3249 10.352C28.4689 10.1013 28.6689 9.90934 28.9249 9.77601C29.1809 9.64267 29.4849 9.57601 29.8369 9.57601C30.1889 9.57601 30.4929 9.64267 30.7489 9.77601C31.0049 9.90934 31.2022 10.1013 31.3409 10.352C31.4849 10.6027 31.5569 10.9013 31.5569 11.248V12.424C31.5569 12.7707 31.4849 13.072 31.3409 13.328C31.2022 13.5787 31.0049 13.7707 30.7489 13.904C30.4929 14.0373 30.1889 14.104 29.8369 14.104ZM29.8369 13.464C30.1515 13.464 30.3969 13.376 30.5729 13.2C30.7489 13.024 30.8369 12.7653 30.8369 12.424V11.256C30.8369 10.9147 30.7489 10.656 30.5729 10.48C30.3969 10.304 30.1515 10.216 29.8369 10.216C29.5275 10.216 29.2822 10.304 29.1009 10.48C28.9249 10.656 28.8369 10.9147 28.8369 11.256V12.424C28.8369 12.7653 28.9249 13.024 29.1009 13.2C29.2822 13.376 29.5275 13.464 29.8369 13.464ZM32.9697 14.04V9.64001H33.6897V10.48H33.8417L33.6897 10.648C33.6897 10.3013 33.7937 10.0347 34.0017 9.84801C34.2097 9.65601 34.4977 9.56001 34.8657 9.56001C35.3084 9.56001 35.6604 9.69601 35.9217 9.96801C36.1831 10.24 36.3137 10.6107 36.3137 11.08V14.04H35.5937V11.16C35.5937 10.8453 35.5084 10.6053 35.3377 10.44C35.1724 10.2693 34.9457 10.184 34.6577 10.184C34.3591 10.184 34.1217 10.2747 33.9457 10.456C33.7751 10.6373 33.6897 10.8987 33.6897 11.24V14.04H32.9697ZM39.2946 14.104C38.996 14.104 38.7346 14.0587 38.5106 13.968C38.292 13.872 38.116 13.7387 37.9826 13.568C37.8546 13.3973 37.7773 13.1947 37.7506 12.96H38.4706C38.5026 13.1147 38.588 13.2373 38.7266 13.328C38.8706 13.4187 39.06 13.464 39.2946 13.464H39.6306C39.9133 13.464 40.124 13.408 40.2626 13.296C40.4013 13.1787 40.4706 13.024 40.4706 12.832C40.4706 12.6453 40.4066 12.4987 40.2786 12.392C40.156 12.28 39.972 12.2053 39.7266 12.168L39.1346 12.072C38.7026 11.9973 38.38 11.864 38.1666 11.672C37.9586 11.4747 37.8546 11.1893 37.8546 10.816C37.8546 10.4213 37.98 10.1173 38.2306 9.90401C38.4813 9.68534 38.8573 9.57601 39.3586 9.57601H39.6626C40.084 9.57601 40.4226 9.67467 40.6786 9.87201C40.9346 10.0693 41.0893 10.336 41.1426 10.672H40.4226C40.3906 10.5333 40.3106 10.424 40.1826 10.344C40.0546 10.2587 39.8813 10.216 39.6626 10.216H39.3586C39.0866 10.216 38.8866 10.2667 38.7586 10.368C38.636 10.4693 38.5746 10.6213 38.5746 10.824C38.5746 11.0053 38.628 11.1387 38.7346 11.224C38.8413 11.3093 39.0093 11.3707 39.2386 11.408L39.8306 11.504C40.3053 11.5787 40.6493 11.7173 40.8626 11.92C41.0813 12.1227 41.1906 12.416 41.1906 12.8C41.1906 13.2053 41.06 13.5253 40.7986 13.76C40.5426 13.9893 40.1533 14.104 39.6306 14.104H39.2946ZM44.7075 14.04C44.3288 14.04 44.0328 13.9387 43.8195 13.736C43.6115 13.5333 43.5075 13.248 43.5075 12.88V10.296H42.2675V9.64001H43.5075V8.40001H44.2275V9.64001H45.9875V10.296H44.2275V12.88C44.2275 13.216 44.3875 13.384 44.7075 13.384H45.9075V14.04H44.7075ZM49.0244 14.12C48.6777 14.12 48.3737 14.0507 48.1124 13.912C47.8564 13.7733 47.6564 13.5787 47.5124 13.328C47.3737 13.072 47.3044 12.776 47.3044 12.44V11.24C47.3044 10.8987 47.3737 10.6027 47.5124 10.352C47.6564 10.1013 47.8564 9.90668 48.1124 9.76801C48.3737 9.62934 48.6777 9.56001 49.0244 9.56001C49.371 9.56001 49.6724 9.62934 49.9284 9.76801C50.1897 9.90668 50.3897 10.1013 50.5284 10.352C50.6724 10.6027 50.7444 10.8987 50.7444 11.24V12.016H48.0084V12.44C48.0084 12.7867 48.0964 13.0533 48.2724 13.24C48.4484 13.4213 48.699 13.512 49.0244 13.512C49.3017 13.512 49.5257 13.464 49.6964 13.368C49.867 13.2667 49.971 13.1173 50.0084 12.92H50.7284C50.6804 13.288 50.499 13.5813 50.1844 13.8C49.875 14.0133 49.4884 14.12 49.0244 14.12ZM50.0404 11.536V11.24C50.0404 10.8933 49.9524 10.6267 49.7764 10.44C49.6057 10.2533 49.355 10.16 49.0244 10.16C48.699 10.16 48.4484 10.2533 48.2724 10.44C48.0964 10.6267 48.0084 10.8933 48.0084 11.24V11.472H50.0964L50.0404 11.536ZM54.4212 14.04C54.1652 14.04 53.9412 13.9893 53.7492 13.888C53.5572 13.7867 53.4079 13.6427 53.3012 13.456C53.1946 13.2693 53.1412 13.0507 53.1412 12.8V8.85601H51.6612V8.20001H53.8612V12.8C53.8612 12.9813 53.9119 13.1253 54.0132 13.232C54.1146 13.3333 54.2506 13.384 54.4212 13.384H55.8212V14.04H54.4212ZM59.2181 14.04C58.9621 14.04 58.7381 13.9893 58.5461 13.888C58.3541 13.7867 58.2048 13.6427 58.0981 13.456C57.9915 13.2693 57.9381 13.0507 57.9381 12.8V8.85601H56.4581V8.20001H58.6581V12.8C58.6581 12.9813 58.7088 13.1253 58.8101 13.232C58.9115 13.3333 59.0475 13.384 59.2181 13.384H60.6181V14.04H59.2181ZM63.031 14.12C62.567 14.12 62.2017 14.0027 61.935 13.768C61.6683 13.528 61.535 13.2053 61.535 12.8C61.535 12.3893 61.6683 12.0667 61.935 11.832C62.2017 11.5973 62.5617 11.48 63.015 11.48H64.375V11.04C64.375 10.768 64.2923 10.56 64.127 10.416C63.967 10.2667 63.7377 10.192 63.439 10.192C63.1777 10.192 62.959 10.248 62.783 10.36C62.607 10.4667 62.5057 10.6133 62.479 10.8H61.759C61.807 10.4213 61.9857 10.12 62.295 9.89601C62.6043 9.67201 62.991 9.56001 63.455 9.56001C63.9617 9.56001 64.3617 9.69068 64.655 9.95201C64.9483 10.2133 65.095 10.568 65.095 11.016V14.04H64.391V13.2H64.271L64.391 13.08C64.391 13.4 64.2657 13.6533 64.015 13.84C63.7697 14.0267 63.4417 14.12 63.031 14.12ZM63.207 13.552C63.5483 13.552 63.8283 13.4667 64.047 13.296C64.2657 13.1253 64.375 12.9067 64.375 12.64V12.016H63.031C62.791 12.016 62.6017 12.0827 62.463 12.216C62.3243 12.3493 62.255 12.5307 62.255 12.76C62.255 13.0053 62.3377 13.2 62.503 13.344C62.6737 13.4827 62.9083 13.552 63.207 13.552ZM68.6919 14.04C68.3132 14.04 68.0172 13.9387 67.8039 13.736C67.5959 13.5333 67.4919 13.248 67.4919 12.88V10.296H66.2519V9.64001H67.4919V8.40001H68.2119V9.64001H69.9719V10.296H68.2119V12.88C68.2119 13.216 68.3719 13.384 68.6919 13.384H69.8919V14.04H68.6919ZM71.2887 14.04V13.384H72.8487V10.296H71.4887V9.64001H73.5687V13.384H75.0487V14.04H71.2887ZM73.1287 8.84801C72.9527 8.84801 72.8141 8.80267 72.7127 8.71201C72.6114 8.62134 72.5607 8.49868 72.5607 8.34401C72.5607 8.18401 72.6114 8.05867 72.7127 7.96801C72.8141 7.87201 72.9527 7.82401 73.1287 7.82401C73.3047 7.82401 73.4434 7.87201 73.5447 7.96801C73.6461 8.05867 73.6967 8.18401 73.6967 8.34401C73.6967 8.49868 73.6461 8.62134 73.5447 8.71201C73.4434 8.80267 73.3047 8.84801 73.1287 8.84801ZM77.8056 14.104C77.4536 14.104 77.1496 14.0373 76.8936 13.904C76.6376 13.7707 76.4376 13.5787 76.2936 13.328C76.155 13.072 76.0856 12.7707 76.0856 12.424V11.256C76.0856 10.904 76.155 10.6027 76.2936 10.352C76.4376 10.1013 76.6376 9.90934 76.8936 9.77601C77.1496 9.64267 77.4536 9.57601 77.8056 9.57601C78.1576 9.57601 78.4616 9.64267 78.7176 9.77601C78.9736 9.90934 79.171 10.1013 79.3096 10.352C79.4536 10.6027 79.5256 10.9013 79.5256 11.248V12.424C79.5256 12.7707 79.4536 13.072 79.3096 13.328C79.171 13.5787 78.9736 13.7707 78.7176 13.904C78.4616 14.0373 78.1576 14.104 77.8056 14.104ZM77.8056 13.464C78.1203 13.464 78.3656 13.376 78.5416 13.2C78.7176 13.024 78.8056 12.7653 78.8056 12.424V11.256C78.8056 10.9147 78.7176 10.656 78.5416 10.48C78.3656 10.304 78.1203 10.216 77.8056 10.216C77.4963 10.216 77.251 10.304 77.0696 10.48C76.8936 10.656 76.8056 10.9147 76.8056 11.256V12.424C76.8056 12.7653 76.8936 13.024 77.0696 13.2C77.251 13.376 77.4963 13.464 77.8056 13.464ZM80.9385 14.04V9.64001H81.6585V10.48H81.8105L81.6585 10.648C81.6585 10.3013 81.7625 10.0347 81.9705 9.84801C82.1785 9.65601 82.4665 9.56001 82.8345 9.56001C83.2772 9.56001 83.6292 9.69601 83.8905 9.96801C84.1518 10.24 84.2825 10.6107 84.2825 11.08V14.04H83.5625V11.16C83.5625 10.8453 83.4772 10.6053 83.3065 10.44C83.1412 10.2693 82.9145 10.184 82.6265 10.184C82.3278 10.184 82.0905 10.2747 81.9145 10.456C81.7438 10.6373 81.6585 10.8987 81.6585 11.24V14.04H80.9385Z" fill="#DBA2FA"/>
</svg>
