<svg width="2121" height="526" viewBox="0 0 2121 526" fill="none" xmlns="http://www.w3.org/2000/svg">
<rect x="13" y="13" width="500" height="500" rx="100" fill="#29314F" stroke="#7B588F" stroke-width="25"/>
<circle cx="263.258" cy="263.258" r="126.258" fill="#DBA2FA"/>
<circle cx="212.5" cy="212.5" r="110.5" fill="#29314F"/>
<path d="M222.63 159.955C223.691 158.511 225.969 159.084 226.221 160.857L231.629 198.855C231.705 199.387 231.992 199.866 232.425 200.185L263.35 222.916C264.793 223.978 264.221 226.256 262.447 226.508L224.449 231.916C223.917 231.992 223.438 232.278 223.12 232.711L200.388 263.636C199.327 265.08 197.049 264.507 196.796 262.734L191.388 224.736C191.313 224.204 191.026 223.724 190.593 223.406L159.668 200.674C158.225 199.613 158.797 197.335 160.571 197.083L198.569 191.675C199.101 191.599 199.58 191.313 199.898 190.879L222.63 159.955Z" fill="#DBA2FA"/>
<path d="M614.8 345C606 345 598.333 343.333 591.8 340C585.4 336.667 580.4 331.867 576.8 325.6C573.333 319.2 571.6 311.667 571.6 303V237C571.6 228.2 573.333 220.667 576.8 214.4C580.4 208.133 585.4 203.333 591.8 200C598.333 196.667 606 195 614.8 195C623.6 195 631.2 196.733 637.6 200.2C644 203.533 648.933 208.333 652.4 214.6C655.867 220.867 657.6 228.333 657.6 237H639.6C639.6 228.733 637.4 222.4 633 218C628.733 213.467 622.667 211.2 614.8 211.2C606.933 211.2 600.733 213.4 596.2 217.8C591.8 222.2 589.6 228.533 589.6 236.8V303C589.6 311.267 591.8 317.667 596.2 322.2C600.733 326.6 606.933 328.8 614.8 328.8C622.667 328.8 628.733 326.6 633 322.2C637.4 317.667 639.6 311.267 639.6 303H657.6C657.6 311.533 655.867 319 652.4 325.4C648.933 331.667 644 336.533 637.6 340C631.2 343.333 623.6 345 614.8 345ZM733.922 344.6C725.122 344.6 717.522 342.933 711.122 339.6C704.722 336.267 699.722 331.467 696.122 325.2C692.655 318.8 690.922 311.267 690.922 302.6V273.4C690.922 264.6 692.655 257.067 696.122 250.8C699.722 244.533 704.722 239.733 711.122 236.4C717.522 233.067 725.122 231.4 733.922 231.4C742.722 231.4 750.322 233.067 756.722 236.4C763.122 239.733 768.055 244.533 771.522 250.8C775.122 257.067 776.922 264.533 776.922 273.2V302.6C776.922 311.267 775.122 318.8 771.522 325.2C768.055 331.467 763.122 336.267 756.722 339.6C750.322 342.933 742.722 344.6 733.922 344.6ZM733.922 328.6C741.789 328.6 747.922 326.4 752.322 322C756.722 317.6 758.922 311.133 758.922 302.6V273.4C758.922 264.867 756.722 258.4 752.322 254C747.922 249.6 741.789 247.4 733.922 247.4C726.189 247.4 720.055 249.6 715.522 254C711.122 258.4 708.922 264.867 708.922 273.4V302.6C708.922 311.133 711.122 317.6 715.522 322C720.055 326.4 726.189 328.6 733.922 328.6ZM812.244 343V233H830.244V254H834.044L830.244 258.2C830.244 249.533 832.844 242.867 838.044 238.2C843.244 233.4 850.444 231 859.644 231C870.71 231 879.51 234.4 886.044 241.2C892.577 248 895.844 257.267 895.844 269V343H877.844V271C877.844 263.133 875.71 257.133 871.444 253C867.31 248.733 861.644 246.6 854.444 246.6C846.977 246.6 841.044 248.867 836.644 253.4C832.377 257.933 830.244 264.467 830.244 273V343H812.244ZM970.366 344.6C962.899 344.6 956.366 343.467 950.766 341.2C945.299 338.8 940.899 335.467 937.566 331.2C934.366 326.933 932.432 321.867 931.766 316H949.766C950.566 319.867 952.699 322.933 956.166 325.2C959.766 327.467 964.499 328.6 970.366 328.6H978.766C985.832 328.6 991.099 327.2 994.566 324.4C998.032 321.467 999.766 317.6 999.766 312.8C999.766 308.133 998.166 304.467 994.966 301.8C991.899 299 987.299 297.133 981.166 296.2L966.366 293.8C955.566 291.933 947.499 288.6 942.166 283.8C936.966 278.867 934.366 271.733 934.366 262.4C934.366 252.533 937.499 244.933 943.766 239.6C950.032 234.133 959.432 231.4 971.966 231.4H979.566C990.099 231.4 998.566 233.867 1004.97 238.8C1011.37 243.733 1015.23 250.4 1016.57 258.8H998.566C997.766 255.333 995.766 252.6 992.566 250.6C989.366 248.467 985.032 247.4 979.566 247.4H971.966C965.166 247.4 960.166 248.667 956.966 251.2C953.899 253.733 952.366 257.533 952.366 262.6C952.366 267.133 953.699 270.467 956.366 272.6C959.032 274.733 963.232 276.267 968.966 277.2L983.766 279.6C995.632 281.467 1004.23 284.933 1009.57 290C1015.03 295.067 1017.77 302.4 1017.77 312C1017.77 322.133 1014.5 330.133 1007.97 336C1001.57 341.733 991.832 344.6 978.766 344.6H970.366ZM1105.69 343C1096.22 343 1088.82 340.467 1083.49 335.4C1078.29 330.333 1075.69 323.2 1075.69 314V249.4H1044.69V233H1075.69V202H1093.69V233H1137.69V249.4H1093.69V314C1093.69 322.4 1097.69 326.6 1105.69 326.6H1135.69V343H1105.69ZM1213.61 345C1204.94 345 1197.34 343.267 1190.81 339.8C1184.41 336.333 1179.41 331.467 1175.81 325.2C1172.34 318.8 1170.61 311.4 1170.61 303V273C1170.61 264.467 1172.34 257.067 1175.81 250.8C1179.41 244.533 1184.41 239.667 1190.81 236.2C1197.34 232.733 1204.94 231 1213.61 231C1222.28 231 1229.81 232.733 1236.21 236.2C1242.74 239.667 1247.74 244.533 1251.21 250.8C1254.81 257.067 1256.61 264.467 1256.61 273V292.4H1188.21V303C1188.21 311.667 1190.41 318.333 1194.81 323C1199.21 327.533 1205.48 329.8 1213.61 329.8C1220.54 329.8 1226.14 328.6 1230.41 326.2C1234.68 323.667 1237.28 319.933 1238.21 315H1256.21C1255.01 324.2 1250.48 331.533 1242.61 337C1234.88 342.333 1225.21 345 1213.61 345ZM1239.01 280.4V273C1239.01 264.333 1236.81 257.667 1232.41 253C1228.14 248.333 1221.88 246 1213.61 246C1205.48 246 1199.21 248.333 1194.81 253C1190.41 257.667 1188.21 264.333 1188.21 273V278.8H1240.41L1239.01 280.4ZM1348.53 343C1342.13 343 1336.53 341.733 1331.73 339.2C1326.93 336.667 1323.2 333.067 1320.53 328.4C1317.86 323.733 1316.53 318.267 1316.53 312V213.4H1279.53V197H1334.53V312C1334.53 316.533 1335.8 320.133 1338.33 322.8C1340.86 325.333 1344.26 326.6 1348.53 326.6H1383.53V343H1348.53ZM1468.45 343C1462.05 343 1456.45 341.733 1451.65 339.2C1446.85 336.667 1443.12 333.067 1440.45 328.4C1437.79 323.733 1436.45 318.267 1436.45 312V213.4H1399.45V197H1454.45V312C1454.45 316.533 1455.72 320.133 1458.25 322.8C1460.79 325.333 1464.19 326.6 1468.45 326.6H1503.45V343H1468.45ZM1563.78 345C1552.18 345 1543.04 342.067 1536.38 336.2C1529.71 330.2 1526.38 322.133 1526.38 312C1526.38 301.733 1529.71 293.667 1536.38 287.8C1543.04 281.933 1552.04 279 1563.38 279H1597.38V268C1597.38 261.2 1595.31 256 1591.18 252.4C1587.18 248.667 1581.44 246.8 1573.98 246.8C1567.44 246.8 1561.98 248.2 1557.58 251C1553.18 253.667 1550.64 257.333 1549.98 262H1531.98C1533.18 252.533 1537.64 245 1545.38 239.4C1553.11 233.8 1562.78 231 1574.38 231C1587.04 231 1597.04 234.267 1604.38 240.8C1611.71 247.333 1615.38 256.2 1615.38 267.4V343H1597.78V322H1594.78L1597.78 319C1597.78 327 1594.64 333.333 1588.38 338C1582.24 342.667 1574.04 345 1563.78 345ZM1568.18 330.8C1576.71 330.8 1583.71 328.667 1589.18 324.4C1594.64 320.133 1597.38 314.667 1597.38 308V292.4H1563.78C1557.78 292.4 1553.04 294.067 1549.58 297.4C1546.11 300.733 1544.38 305.267 1544.38 311C1544.38 317.133 1546.44 322 1550.58 325.6C1554.84 329.067 1560.71 330.8 1568.18 330.8ZM1705.3 343C1695.83 343 1688.43 340.467 1683.1 335.4C1677.9 330.333 1675.3 323.2 1675.3 314V249.4H1644.3V233H1675.3V202H1693.3V233H1737.3V249.4H1693.3V314C1693.3 322.4 1697.3 326.6 1705.3 326.6H1735.3V343H1705.3ZM1770.22 343V326.6H1809.22V249.4H1775.22V233H1827.22V326.6H1864.22V343H1770.22ZM1816.22 213.2C1811.82 213.2 1808.35 212.067 1805.82 209.8C1803.29 207.533 1802.02 204.467 1802.02 200.6C1802.02 196.6 1803.29 193.467 1805.82 191.2C1808.35 188.8 1811.82 187.6 1816.22 187.6C1820.62 187.6 1824.09 188.8 1826.62 191.2C1829.15 193.467 1830.42 196.6 1830.42 200.6C1830.42 204.467 1829.15 207.533 1826.62 209.8C1824.09 212.067 1820.62 213.2 1816.22 213.2ZM1933.14 344.6C1924.34 344.6 1916.74 342.933 1910.34 339.6C1903.94 336.267 1898.94 331.467 1895.34 325.2C1891.87 318.8 1890.14 311.267 1890.14 302.6V273.4C1890.14 264.6 1891.87 257.067 1895.34 250.8C1898.94 244.533 1903.94 239.733 1910.34 236.4C1916.74 233.067 1924.34 231.4 1933.14 231.4C1941.94 231.4 1949.54 233.067 1955.94 236.4C1962.34 239.733 1967.27 244.533 1970.74 250.8C1974.34 257.067 1976.14 264.533 1976.14 273.2V302.6C1976.14 311.267 1974.34 318.8 1970.74 325.2C1967.27 331.467 1962.34 336.267 1955.94 339.6C1949.54 342.933 1941.94 344.6 1933.14 344.6ZM1933.14 328.6C1941.01 328.6 1947.14 326.4 1951.54 322C1955.94 317.6 1958.14 311.133 1958.14 302.6V273.4C1958.14 264.867 1955.94 258.4 1951.54 254C1947.14 249.6 1941.01 247.4 1933.14 247.4C1925.41 247.4 1919.27 249.6 1914.74 254C1910.34 258.4 1908.14 264.867 1908.14 273.4V302.6C1908.14 311.133 1910.34 317.6 1914.74 322C1919.27 326.4 1925.41 328.6 1933.14 328.6ZM2011.46 343V233H2029.46V254H2033.26L2029.46 258.2C2029.46 249.533 2032.06 242.867 2037.26 238.2C2042.46 233.4 2049.66 231 2058.86 231C2069.93 231 2078.73 234.4 2085.26 241.2C2091.8 248 2095.06 257.267 2095.06 269V343H2077.06V271C2077.06 263.133 2074.93 257.133 2070.66 253C2066.53 248.733 2060.86 246.6 2053.66 246.6C2046.2 246.6 2040.26 248.867 2035.86 253.4C2031.6 257.933 2029.46 264.467 2029.46 273V343H2011.46Z" fill="#DBA2FA"/>
</svg>
