<svg width="526" height="526" viewBox="0 0 526 526" fill="none" xmlns="http://www.w3.org/2000/svg">
<rect x="13" y="13" width="500" height="500" rx="100" fill="#29314F" stroke="#7B588F" stroke-width="25"/>
<path d="M306.603 143.656C303.992 139.496 307.82 134.012 312.357 135.892C361.23 156.138 395.61 204.298 395.61 260.49C395.61 334.946 335.252 395.304 260.796 395.304C204.604 395.304 156.444 360.924 136.198 312.051C134.318 307.514 139.802 303.686 143.962 306.297C162.113 317.691 183.586 324.281 206.599 324.281C271.762 324.281 324.587 271.456 324.587 206.293C324.587 183.28 317.997 161.807 306.603 143.656Z" fill="#DBA2FA"/>
<path d="M213.26 155.84C215.913 152.231 221.608 153.663 222.239 158.097L226.855 190.532C227.044 191.862 227.761 193.06 228.844 193.856L255.241 213.26C258.85 215.913 257.419 221.608 252.985 222.239L220.55 226.855C219.219 227.044 218.021 227.761 217.225 228.844L197.821 255.241C195.169 258.85 189.474 257.419 188.843 252.985L184.226 220.55C184.037 219.219 183.32 218.021 182.238 217.225L155.84 197.821C152.231 195.169 153.663 189.474 158.097 188.843L190.532 184.226C191.862 184.037 193.06 183.32 193.856 182.238L213.26 155.84Z" fill="#DBA2FA"/>
</svg>
