<svg width="20" height="20" viewBox="0 0 20 20" fill="none" xmlns="http://www.w3.org/2000/svg">
<path d="M13.149 0.769455C12.9821 0.517611 13.2153 0.179377 13.4969 0.288846C17.3019 1.7678 19.9996 5.46673 19.9996 9.79888C19.9994 15.4328 15.4376 20.0001 9.81014 20.0001C5.48361 20 1.79004 17.2993 0.312561 13.4906C0.203249 13.2088 0.541838 12.9757 0.793622 13.1429C2.20395 14.0795 3.89536 14.626 5.71444 14.626C10.6394 14.6258 14.6314 10.6281 14.6314 5.69732C14.6314 3.87524 14.0853 2.18165 13.149 0.769455Z" fill="black"/>
<path d="M6.31929 1.74096C6.48245 1.51874 6.83306 1.60697 6.87187 1.88001L7.24919 4.53418C7.26083 4.61606 7.30492 4.68982 7.37153 4.73884L9.52987 6.32719C9.75182 6.49053 9.66388 6.84083 9.39116 6.87969L6.73918 7.25757C6.65733 7.26923 6.58364 7.31335 6.53471 7.37999L4.94873 9.54011C4.78557 9.76233 4.43496 9.6741 4.39614 9.40105L4.01883 6.74689C4.00719 6.66501 3.9631 6.59125 3.89649 6.54223L1.73815 4.95387C1.51619 4.79053 1.60414 4.44023 1.87686 4.40137L4.52884 4.0235C4.61068 4.01184 4.68438 3.96771 4.7333 3.90107L6.31929 1.74096Z" fill="black"/>
</svg>
