<svg width="526" height="526" viewBox="0 0 526 526" fill="none" xmlns="http://www.w3.org/2000/svg">
<rect x="13" y="13" width="500" height="500" rx="100" fill="#29314F" stroke="#7B588F" stroke-width="25"/>
<circle cx="263.258" cy="263.258" r="126.258" fill="#DBA2FA"/>
<circle cx="212.5" cy="212.5" r="110.5" fill="#29314F"/>
<path d="M222.63 159.955C223.691 158.511 225.969 159.084 226.221 160.857L231.629 198.855C231.705 199.387 231.992 199.866 232.425 200.185L263.35 222.916C264.793 223.978 264.221 226.256 262.447 226.508L224.449 231.916C223.917 231.992 223.438 232.278 223.12 232.711L200.388 263.636C199.327 265.08 197.049 264.507 196.796 262.734L191.388 224.736C191.313 224.204 191.026 223.724 190.593 223.406L159.668 200.674C158.225 199.613 158.797 197.335 160.571 197.083L198.569 191.675C199.101 191.599 199.58 191.313 199.898 190.879L222.63 159.955Z" fill="#DBA2FA"/>
</svg>
