<svg width="22" height="22" viewBox="0 0 22 22" fill="none" xmlns="http://www.w3.org/2000/svg">
<rect x="1" y="1" width="20" height="20" rx="4" fill="#29314F" stroke="#7B588F"/>
<path d="M12.9065 6.50713C12.7673 6.24742 13.0039 5.92144 13.2688 6.05036C15.0655 6.92468 16.3039 8.76657 16.304 10.8992C16.304 13.8775 13.8896 16.2918 10.9114 16.2918C8.7788 16.2917 6.93689 15.0533 6.06256 13.2566C5.93363 12.9917 6.25963 12.7552 6.51935 12.8943C7.18226 13.2495 7.93982 13.451 8.74443 13.451C11.3507 13.4508 13.4632 11.3376 13.4632 8.73128C13.4631 7.92686 13.2616 7.16974 12.9065 6.50713Z" fill="#DBA2FA"/>
<path d="M8.86534 6.91097C9.0245 6.69443 9.3662 6.78032 9.40406 7.04638L9.54828 8.0597C9.55964 8.13951 9.60265 8.2114 9.66761 8.25915L10.4923 8.86535C10.7088 9.02452 10.623 9.36621 10.3569 9.40408L9.34358 9.5483C9.26376 9.55966 9.19188 9.60267 9.14413 9.66763L8.53792 10.4923C8.37875 10.7089 8.03706 10.623 7.99919 10.3569L7.85497 9.3436C7.84361 9.26378 7.80061 9.19189 7.73565 9.14415L6.91095 8.53794C6.69441 8.37877 6.7803 8.03708 7.04636 7.99921L8.05968 7.85499C8.13949 7.84363 8.21138 7.80062 8.25913 7.73567L8.86534 6.91097Z" fill="#DBA2FA"/>
</svg>
