<svg width="24" height="24" viewBox="-1 -1 24 24" fill="none" xmlns="http://www.w3.org/2000/svg">
<path d="M21.0004 10.799L22.0004 10.7991V10.799H21.0004ZM10.81 21.0002L10.81 22.0002H10.81V21.0002ZM6.71431 15.6252L6.71431 16.6252L6.71435 16.6252L6.71431 15.6252ZM15.6323 6.69748L16.6323 6.69748V6.69748H15.6323ZM1.31245 14.4908L0.380149 14.8525L1.31245 14.4908ZM1.79354 14.1431L1.24042 14.9762L1.79354 14.1431ZM14.4977 1.28909L14.8601 0.357053L14.4977 1.28909ZM14.1499 1.76967L13.3164 2.3222L14.1499 1.76967ZM14.4977 1.28909L14.1354 2.22113C17.5684 3.55583 20.0004 6.89315 20.0004 10.799H21.0004H22.0004C22.0004 6.04124 19.0364 1.98075 14.8601 0.357053L14.4977 1.28909ZM21.0004 10.799L20.0004 10.799C20.0002 15.8816 15.8841 20.0002 10.81 20.0002V21.0002V22.0002C16.9907 22.0002 22.0002 16.9842 22.0004 10.7991L21.0004 10.799ZM10.81 21.0002L10.81 20.0002C6.91099 20.0001 3.57838 17.5668 2.24475 14.1291L1.31245 14.4908L0.380149 14.8525C2.00156 19.032 6.05618 22 10.81 22.0002L10.81 21.0002ZM1.79354 14.1431L1.24042 14.9762C2.80937 16.0178 4.6922 16.6252 6.71431 16.6252V15.6252V14.6252C5.0983 14.6252 3.59835 14.141 2.34667 13.31L1.79354 14.1431ZM6.71431 15.6252L6.71435 16.6252C12.1926 16.625 16.6322 12.1796 16.6323 6.69748L15.6323 6.69748L14.6323 6.69747C14.6323 11.077 11.0861 14.6251 6.71427 14.6252L6.71431 15.6252ZM15.6323 6.69748H16.6323C16.6323 4.6727 16.0245 2.78778 14.9833 1.21714L14.1499 1.76967L13.3164 2.3222C14.1475 3.57597 14.6323 5.07848 14.6323 6.69748H15.6323ZM1.31245 14.4908L2.24475 14.1291C2.37971 14.477 2.21063 14.8122 1.99572 14.9645C1.79688 15.1054 1.49425 15.1447 1.24042 14.9762L1.79354 14.1431L2.34667 13.31C1.84103 12.9743 1.24319 13.0465 0.839432 13.3326C0.419604 13.6301 0.135879 14.2228 0.380149 14.8525L1.31245 14.4908ZM14.4977 1.28909L14.8601 0.357053C14.2309 0.112416 13.638 0.395386 13.3401 0.815117C13.0536 1.21877 12.9811 1.81649 13.3164 2.3222L14.1499 1.76967L14.9833 1.21714C15.1516 1.471 15.1123 1.77368 14.9711 1.97263C14.8185 2.18766 14.483 2.35627 14.1354 2.22113L14.4977 1.28909Z" fill="black"/>
<path d="M7.31929 2.74096C7.48245 2.51874 7.83306 2.60697 7.87187 2.88001L8.24919 5.53418C8.26083 5.61606 8.30492 5.68982 8.37153 5.73884L10.5299 7.32719C10.7518 7.49053 10.6639 7.84083 10.3912 7.87969L7.73918 8.25757C7.65733 8.26923 7.58364 8.31335 7.53471 8.37999L5.94873 10.5401C5.78557 10.7623 5.43496 10.6741 5.39614 10.4011L5.01883 7.74689C5.00719 7.66501 4.9631 7.59125 4.89649 7.54223L2.73815 5.95387C2.51619 5.79053 2.60414 5.44023 2.87686 5.40137L5.52884 5.0235C5.61068 5.01184 5.68438 4.96771 5.7333 4.90107L7.31929 2.74096Z" stroke="black" stroke-width="2"/>
</svg>
