<svg width="22" height="22" viewBox="0 0 22 22" fill="none" xmlns="http://www.w3.org/2000/svg">
<path d="M21.0006 10.7989L22.0006 10.799V10.7989H21.0006ZM10.8101 21.0001L10.8101 22.0001H10.8101V21.0001ZM6.71442 15.6251V16.6251H6.71446L6.71442 15.6251ZM15.6324 6.69737L16.6324 6.69737V6.69737H15.6324ZM1.31256 14.4907L0.380262 14.8523L1.31256 14.4907ZM1.79366 14.1429L1.24053 14.9761L1.79366 14.1429ZM14.4979 1.28898L14.8602 0.35694L14.4979 1.28898ZM14.15 1.76955L13.3165 2.32209L14.15 1.76955ZM14.4979 1.28898L14.1355 2.22102C17.5685 3.55571 20.0006 6.89304 20.0006 10.7989H21.0006H22.0006C22.0006 6.04112 19.0366 1.98064 14.8602 0.35694L14.4979 1.28898ZM21.0006 10.7989L20.0006 10.7989C20.0003 15.8815 15.8842 20.0001 10.8101 20.0001V21.0001V22.0001C16.9908 22.0001 22.0003 16.9841 22.0006 10.799L21.0006 10.7989ZM10.8101 21.0001L10.8102 20.0001C6.9111 20 3.57849 17.5667 2.24487 14.129L1.31256 14.4907L0.380262 14.8523C2.00167 19.0319 6.0563 21.9999 10.8101 22.0001L10.8101 21.0001ZM1.79366 14.1429L1.24053 14.9761C2.80949 16.0177 4.69231 16.6251 6.71442 16.6251V15.6251V14.6251C5.09842 14.6251 3.59847 14.1409 2.34678 13.3098L1.79366 14.1429ZM6.71442 15.6251L6.71446 16.6251C12.1927 16.6249 16.6324 12.1795 16.6324 6.69737L15.6324 6.69737L14.6324 6.69736C14.6324 11.0768 11.0862 14.6249 6.71439 14.6251L6.71442 15.6251ZM15.6324 6.69737H16.6324C16.6324 4.67259 16.0247 2.78767 14.9835 1.21702L14.15 1.76955L13.3165 2.32209C14.1476 3.57586 14.6324 5.07837 14.6324 6.69737H15.6324ZM1.31256 14.4907L2.24487 14.129C2.37982 14.4768 2.21074 14.8121 1.99583 14.9644C1.797 15.1053 1.49437 15.1446 1.24053 14.9761L1.79366 14.1429L2.34678 13.3098C1.84114 12.9741 1.2433 13.0464 0.839545 13.3325C0.419716 13.63 0.135991 14.2227 0.380262 14.8523L1.31256 14.4907ZM14.4979 1.28898L14.8602 0.35694C14.231 0.112303 13.6381 0.395273 13.3402 0.815004C13.0537 1.21865 12.9812 1.81637 13.3165 2.32209L14.15 1.76955L14.9835 1.21702C15.1517 1.47088 15.1124 1.77357 14.9712 1.97252C14.8186 2.18755 14.4831 2.35616 14.1355 2.22102L14.4979 1.28898Z" fill="white"/>
<path d="M7.31929 2.74096C7.48245 2.51874 7.83306 2.60697 7.87187 2.88001L8.24919 5.53418C8.26083 5.61606 8.30492 5.68982 8.37153 5.73884L10.5299 7.32719C10.7518 7.49053 10.6639 7.84083 10.3912 7.87969L7.73918 8.25757C7.65733 8.26923 7.58364 8.31335 7.53471 8.37999L5.94873 10.5401C5.78557 10.7623 5.43496 10.6741 5.39614 10.4011L5.01883 7.74689C5.00719 7.66501 4.9631 7.59125 4.89649 7.54223L2.73815 5.95387C2.51619 5.79053 2.60414 5.44023 2.87686 5.40137L5.52884 5.0235C5.61068 5.01184 5.68438 4.96771 5.7333 4.90107L7.31929 2.74096Z" stroke="white" stroke-width="2"/>
</svg>
