<svg width="26" height="26" viewBox="0 0 26 26" fill="none" xmlns="http://www.w3.org/2000/svg">
<path d="M16.1493 3.76942C15.9823 3.51758 16.2155 3.17934 16.4971 3.28882C20.302 4.76783 22.9998 8.46675 22.9998 12.7988C22.9997 18.4328 18.4378 23 12.8103 23C8.48332 23 4.78898 20.299 3.3117 16.4896C3.20241 16.2078 3.54102 15.9748 3.79278 16.1421C5.20308 17.0791 6.89428 17.6259 8.71367 17.626C13.6389 17.626 17.6316 13.6282 17.6316 8.69727C17.6316 6.87525 17.0855 5.18162 16.1493 3.76942Z" fill="#DBA2FA"/>
<path d="M9.31929 4.74096C9.48245 4.51874 9.83306 4.60697 9.87187 4.88001L10.2492 7.53418C10.2608 7.61606 10.3049 7.68982 10.3715 7.73884L12.5299 9.32719C12.7518 9.49053 12.6639 9.84083 12.3912 9.87969L9.73918 10.2576C9.65733 10.2692 9.58364 10.3134 9.53471 10.38L7.94873 12.5401C7.78557 12.7623 7.43496 12.6741 7.39614 12.4011L7.01883 9.74689C7.00719 9.66501 6.9631 9.59125 6.89649 9.54223L4.73815 7.95387C4.51619 7.79053 4.60414 7.44023 4.87686 7.40137L7.52884 7.0235C7.61068 7.01184 7.68438 6.96771 7.7333 6.90107L9.31929 4.74096Z" fill="#DBA2FA"/>
</svg>
