<svg width="576" height="576" viewBox="0 0 576 576" fill="none" xmlns="http://www.w3.org/2000/svg">
<rect x="38" y="38" width="500" height="500" rx="150" fill="#29314F" stroke="#7B588F" stroke-width="75"/>
<circle cx="293.736" cy="293.736" r="165.78" fill="#DBA2FA"/>
<circle cx="227.089" cy="227.089" r="145.089" fill="#29314F"/>
<path d="M241.298 156.861C242.36 155.417 244.638 155.99 244.89 157.763L252.244 209.434C252.32 209.966 252.606 210.445 253.039 210.763L295.092 241.675C296.536 242.736 295.963 245.014 294.189 245.266L242.519 252.62C241.987 252.696 241.507 252.983 241.189 253.416L210.278 295.468C209.217 296.912 206.939 296.339 206.686 294.565L199.332 242.895C199.257 242.363 198.97 241.884 198.537 241.565L156.484 210.654C155.041 209.593 155.613 207.315 157.387 207.062L209.058 199.709C209.59 199.633 210.069 199.346 210.387 198.913L241.298 156.861Z" fill="#DBA2FA"/>
</svg>
