<svg width="20" height="20" viewBox="0 0 20 20" fill="none" xmlns="http://www.w3.org/2000/svg">
<path d="M13.1502 0.770319C12.9833 0.518445 13.2165 0.180241 13.4982 0.289744C17.3025 1.76898 19.9999 5.46704 19.9999 9.79869C19.9999 15.4327 15.438 19.9998 9.81048 19.9999C5.48374 19.9999 1.78943 17.2993 0.311921 13.4905C0.202609 13.2087 0.541216 12.9756 0.792998 13.1428C2.2033 14.0795 3.8946 14.6258 5.7138 14.6258C10.639 14.6258 14.6318 10.628 14.6318 5.69712C14.6317 3.87563 14.086 2.1823 13.1502 0.770319Z" fill="#DBA2FA"/>
<path d="M6.31929 1.74096C6.48245 1.51874 6.83306 1.60697 6.87187 1.88001L7.24919 4.53418C7.26083 4.61606 7.30492 4.68982 7.37153 4.73884L9.52987 6.32719C9.75182 6.49053 9.66388 6.84083 9.39116 6.87969L6.73918 7.25757C6.65733 7.26923 6.58364 7.31335 6.53471 7.37999L4.94873 9.54011C4.78557 9.76233 4.43496 9.6741 4.39614 9.40105L4.01883 6.74689C4.00719 6.66501 3.9631 6.59125 3.89649 6.54223L1.73815 4.95387C1.51619 4.79053 1.60414 4.44023 1.87686 4.40137L4.52884 4.0235C4.61068 4.01184 4.68438 3.96771 4.7333 3.90107L6.31929 1.74096Z" fill="#DBA2FA"/>
</svg>
