<svg width="326" height="326" viewBox="0 0 326 326" fill="none" xmlns="http://www.w3.org/2000/svg">
<path d="M204.423 0.0527344C274.273 19.5594 325.515 83.6615 325.516 159.735C325.516 251.293 251.293 325.516 159.735 325.516C83.6614 325.515 19.5583 274.273 0.0517578 204.423C25.2391 225.494 57.6826 238.179 93.0898 238.179C173.22 238.178 238.178 173.22 238.179 93.0898C238.179 57.6829 225.493 25.24 204.423 0.0527344Z" fill="#DBA2FA"/>
<path d="M107.298 22.8606C108.36 21.417 110.638 21.9896 110.89 23.7633L118.244 75.4338C118.32 75.9659 118.606 76.4451 119.039 76.7635L161.092 107.675C162.536 108.736 161.963 111.014 160.189 111.266L108.519 118.62C107.987 118.696 107.507 118.983 107.189 119.416L76.2777 161.468C75.2166 162.912 72.9386 162.339 72.6862 160.565L65.3323 108.895C65.2566 108.363 64.9698 107.884 64.5368 107.565L22.4843 76.654C21.0407 75.5929 21.6133 73.3149 23.387 73.0625L75.0575 65.7086C75.5896 65.6328 76.0689 65.3461 76.3872 64.9131L107.298 22.8606Z" fill="#DBA2FA"/>
</svg>
