<svg width="20" height="20" viewBox="0 0 20 20" fill="none" xmlns="http://www.w3.org/2000/svg">
<path d="M13.1493 0.769423C12.9823 0.517576 13.2155 0.179342 13.4971 0.288818C17.302 1.76783 19.9998 5.46675 19.9998 9.79883C19.9997 15.4328 15.4378 20 9.81035 20C5.48332 20 1.78898 17.299 0.311698 13.4896C0.202413 13.2078 0.541024 12.9748 0.792777 13.1421C2.20308 14.0791 3.89428 14.6259 5.71367 14.626C10.6389 14.626 14.6316 10.6282 14.6316 5.69727C14.6316 3.87525 14.0855 2.18162 13.1493 0.769423Z" fill="white"/>
<path d="M6.31929 1.74096C6.48245 1.51874 6.83306 1.60697 6.87187 1.88001L7.24919 4.53418C7.26083 4.61606 7.30492 4.68982 7.37153 4.73884L9.52987 6.32719C9.75182 6.49053 9.66388 6.84083 9.39116 6.87969L6.73918 7.25757C6.65733 7.26923 6.58364 7.31335 6.53471 7.37999L4.94873 9.54011C4.78557 9.76233 4.43496 9.6741 4.39614 9.40105L4.01883 6.74689C4.00719 6.66501 3.9631 6.59125 3.89649 6.54223L1.73815 4.95387C1.51619 4.79053 1.60414 4.44023 1.87686 4.40137L4.52884 4.0235C4.61068 4.01184 4.68438 3.96771 4.7333 3.90107L6.31929 1.74096Z" fill="white"/>
</svg>
