<svg width="139" height="200" viewBox="0 0 139 200" fill="none" xmlns="http://www.w3.org/2000/svg">
<path d="M0 10C0 4.47716 4.47715 0 10 0H67.5H104L135 31V190C135 195.523 130.523 200 125 200H10C4.47715 200 0 195.523 0 190V10Z" fill="white"/>
<g filter="url(#filter0_d_20_44)">
<path d="M104 0L135 31H114C108.477 31 104 26.5228 104 21V0Z" fill="#CCCCCC"/>
</g>
<path d="M52.2002 187H41.5557V183.777H44.5342V172.046H41.5557V168.824H52.2002V172.046H49.2217V183.777H52.2002V187ZM72.2734 174.561C72.2734 175.375 72.131 176.172 71.8462 176.954C71.5614 177.727 71.1545 178.378 70.6255 178.907C69.9012 179.623 69.0915 180.164 68.1963 180.53C67.3092 180.896 66.2025 181.08 64.876 181.08H61.9585V187H57.271V168.824H64.9858C66.1414 168.824 67.1139 168.925 67.9033 169.129C68.7008 169.324 69.4048 169.621 70.0151 170.02C70.7476 170.5 71.305 171.115 71.6875 171.863C72.0781 172.612 72.2734 173.511 72.2734 174.561ZM67.4272 174.671C67.4272 174.158 67.2889 173.719 67.0122 173.353C66.7355 172.978 66.4141 172.718 66.0479 172.571C65.5596 172.376 65.0835 172.27 64.6196 172.254C64.1558 172.229 63.5373 172.217 62.7642 172.217H61.9585V177.662H63.3013C64.0988 177.662 64.7539 177.613 65.2666 177.515C65.7874 177.417 66.2228 177.222 66.5728 176.929C66.8739 176.669 67.0895 176.36 67.2197 176.001C67.3581 175.635 67.4272 175.192 67.4272 174.671ZM93.6528 187H88.8066L87.5493 183.326H80.811L79.5537 187H74.8296L81.5435 168.824H86.939L93.6528 187ZM86.4141 179.993L84.1802 173.475L81.9463 179.993H86.4141Z" fill="#3B3B3B"/>
<g filter="url(#filter1_d_20_44)">
<path d="M18 78C18 62.536 30.536 50 46 50H90C105.464 50 118 62.536 118 78V122C118 137.464 105.464 150 90 150H46C30.536 150 18 137.464 18 122V78Z" fill="#D5E9E9"/>
<g filter="url(#filter2_i_20_44)">
<path d="M90 50C105.464 50 118 62.536 118 78V111.748C116.189 111.914 114.354 112 112.5 112C79.6391 112 53 85.3609 53 52.5C53 51.6625 53.0185 50.8291 53.0527 50H90Z" fill="#4279D5"/>
</g>
<g filter="url(#filter3_i_20_44)">
<path d="M30.5 93C62.5234 93 88.6369 118.299 89.9473 150H46C30.536 150 18 137.464 18 122V94.3164C22.0306 93.4547 26.2122 93 30.5 93Z" fill="#89D5CF"/>
</g>
</g>
<path d="M33.6012 116V92.2049H38.5321V116H33.6012ZM36.0666 88.5406C35.2825 88.5406 34.6115 88.2692 34.0536 87.7264C33.4956 87.1684 33.2167 86.5049 33.2167 85.7359C33.2167 84.9367 33.4956 84.2657 34.0536 83.7228C34.6115 83.18 35.2825 82.9085 36.0666 82.9085C36.8658 82.9085 37.5369 83.18 38.0797 83.7228C38.6377 84.2657 38.9166 84.9367 38.9166 85.7359C38.9166 86.5049 38.6377 87.1684 38.0797 87.7264C37.5369 88.2692 36.8658 88.5406 36.0666 88.5406ZM58.2784 116.543C55.1268 116.543 52.405 115.864 50.113 114.507C47.8209 113.135 46.0567 111.19 44.8202 108.671C43.5837 106.138 42.9654 103.145 42.9654 99.6918V99.6465C42.9654 96.1934 43.5837 93.2077 44.8202 90.6894C46.0717 88.1712 47.8435 86.2335 50.1356 84.8764C52.4276 83.5042 55.1419 82.8181 58.2784 82.8181C61.3998 82.8181 64.1065 83.5042 66.3986 84.8764C68.6906 86.2486 70.4549 88.1938 71.6914 90.7121C72.9279 93.2152 73.5462 96.1934 73.5462 99.6465V99.6918C73.5462 103.145 72.9279 106.131 71.6914 108.649C70.4549 111.167 68.6906 113.112 66.3986 114.485C64.1216 115.857 61.4149 116.543 58.2784 116.543ZM58.2784 112.042C60.3593 112.042 62.1538 111.537 63.6617 110.526C65.1696 109.516 66.3307 108.083 67.145 106.229C67.9593 104.374 68.3664 102.195 68.3664 99.6918V99.6465C68.3664 97.1283 67.9518 94.9493 67.1224 93.1097C66.3081 91.2549 65.1395 89.8299 63.6165 88.8347C62.1085 87.8244 60.3292 87.3192 58.2784 87.3192C56.2125 87.3192 54.4181 87.8168 52.8951 88.8121C51.3872 89.8073 50.2185 91.2323 49.3892 93.087C48.5598 94.9267 48.1451 97.1132 48.1451 99.6465V99.6918C48.1451 102.21 48.5598 104.396 49.3892 106.251C50.2185 108.106 51.3872 109.539 52.8951 110.549C54.403 111.544 56.1975 112.042 58.2784 112.042ZM89.5151 116.543C87.0723 116.543 84.931 116.173 83.0914 115.435C81.2668 114.696 79.8191 113.64 78.7485 112.268C77.6779 110.881 77.0747 109.229 76.939 107.314L76.9164 106.975H81.8699L81.9152 107.269C82.066 108.264 82.4806 109.131 83.1592 109.87C83.8529 110.594 84.7576 111.152 85.8735 111.544C86.9893 111.936 88.2711 112.132 89.7187 112.132C91.1814 112.132 92.4405 111.929 93.4961 111.521C94.5516 111.114 95.3659 110.534 95.9389 109.78C96.527 109.026 96.821 108.144 96.821 107.133V107.111C96.821 105.799 96.346 104.758 95.396 103.989C94.4611 103.205 92.908 102.579 90.7365 102.112L87.1854 101.366C83.9886 100.687 81.606 99.6013 80.0378 98.1084C78.4696 96.6005 77.6854 94.6402 77.6854 92.2275V92.2049C77.7005 90.3502 78.2132 88.7216 79.2235 87.3192C80.2338 85.9018 81.6287 84.801 83.408 84.0169C85.1874 83.2177 87.2306 82.8181 89.5377 82.8181C91.7996 82.8181 93.7976 83.2026 95.5318 83.9716C97.2659 84.7407 98.6381 85.8188 99.6484 87.2061C100.659 88.5783 101.224 90.1843 101.345 92.024L101.367 92.3859H96.4139L96.3687 92.0918C96.2329 91.0664 95.856 90.1918 95.2377 89.468C94.6345 88.7442 93.8429 88.1938 92.8627 87.8168C91.8826 87.4248 90.7441 87.2287 89.4473 87.2287C88.1052 87.2287 86.9366 87.4323 85.9413 87.8395C84.9461 88.2315 84.1771 88.7819 83.6342 89.4906C83.0914 90.1994 82.8199 91.0363 82.8199 92.0013V92.024C82.8199 93.2454 83.3025 94.2406 84.2675 95.0097C85.2326 95.7787 86.733 96.3819 88.7687 96.8192L92.3199 97.5882C94.5667 98.0557 96.3988 98.689 97.8163 99.4882C99.2337 100.287 100.282 101.283 100.96 102.474C101.639 103.665 101.978 105.105 101.978 106.794V106.817C101.978 108.807 101.473 110.534 100.463 111.996C99.4674 113.444 98.0349 114.567 96.1651 115.367C94.3103 116.151 92.0937 116.543 89.5151 116.543Z" fill="black"/>
<defs>
<filter id="filter0_d_20_44" x="100" y="0" width="39" height="39" filterUnits="userSpaceOnUse" color-interpolation-filters="sRGB">
<feFlood flood-opacity="0" result="BackgroundImageFix"/>
<feColorMatrix in="SourceAlpha" type="matrix" values="0 0 0 0 0 0 0 0 0 0 0 0 0 0 0 0 0 0 127 0" result="hardAlpha"/>
<feOffset dy="4"/>
<feGaussianBlur stdDeviation="2"/>
<feComposite in2="hardAlpha" operator="out"/>
<feColorMatrix type="matrix" values="0 0 0 0 0 0 0 0 0 0 0 0 0 0 0 0 0 0 0.25 0"/>
<feBlend mode="normal" in2="BackgroundImageFix" result="effect1_dropShadow_20_44"/>
<feBlend mode="normal" in="SourceGraphic" in2="effect1_dropShadow_20_44" result="shape"/>
</filter>
<filter id="filter1_d_20_44" x="14" y="50" width="108" height="108" filterUnits="userSpaceOnUse" color-interpolation-filters="sRGB">
<feFlood flood-opacity="0" result="BackgroundImageFix"/>
<feColorMatrix in="SourceAlpha" type="matrix" values="0 0 0 0 0 0 0 0 0 0 0 0 0 0 0 0 0 0 127 0" result="hardAlpha"/>
<feOffset dy="4"/>
<feGaussianBlur stdDeviation="2"/>
<feComposite in2="hardAlpha" operator="out"/>
<feColorMatrix type="matrix" values="0 0 0 0 0 0 0 0 0 0 0 0 0 0 0 0 0 0 0.25 0"/>
<feBlend mode="normal" in2="BackgroundImageFix" result="effect1_dropShadow_20_44"/>
<feBlend mode="normal" in="SourceGraphic" in2="effect1_dropShadow_20_44" result="shape"/>
</filter>
<filter id="filter2_i_20_44" x="53" y="50" width="65" height="66" filterUnits="userSpaceOnUse" color-interpolation-filters="sRGB">
<feFlood flood-opacity="0" result="BackgroundImageFix"/>
<feBlend mode="normal" in="SourceGraphic" in2="BackgroundImageFix" result="shape"/>
<feColorMatrix in="SourceAlpha" type="matrix" values="0 0 0 0 0 0 0 0 0 0 0 0 0 0 0 0 0 0 127 0" result="hardAlpha"/>
<feOffset dy="4"/>
<feGaussianBlur stdDeviation="2"/>
<feComposite in2="hardAlpha" operator="arithmetic" k2="-1" k3="1"/>
<feColorMatrix type="matrix" values="0 0 0 0 0 0 0 0 0 0 0 0 0 0 0 0 0 0 0.25 0"/>
<feBlend mode="normal" in2="shape" result="effect1_innerShadow_20_44"/>
</filter>
<filter id="filter3_i_20_44" x="18" y="93" width="71.9473" height="61" filterUnits="userSpaceOnUse" color-interpolation-filters="sRGB">
<feFlood flood-opacity="0" result="BackgroundImageFix"/>
<feBlend mode="normal" in="SourceGraphic" in2="BackgroundImageFix" result="shape"/>
<feColorMatrix in="SourceAlpha" type="matrix" values="0 0 0 0 0 0 0 0 0 0 0 0 0 0 0 0 0 0 127 0" result="hardAlpha"/>
<feOffset dy="4"/>
<feGaussianBlur stdDeviation="2"/>
<feComposite in2="hardAlpha" operator="arithmetic" k2="-1" k3="1"/>
<feColorMatrix type="matrix" values="0 0 0 0 0 0 0 0 0 0 0 0 0 0 0 0 0 0 0.25 0"/>
<feBlend mode="normal" in2="shape" result="effect1_innerShadow_20_44"/>
</filter>
</defs>
</svg>
