<svg width="139" height="200" viewBox="0 0 139 200" fill="none" xmlns="http://www.w3.org/2000/svg">
<path d="M0 10C0 4.47716 4.47715 0 10 0H67.5H104L135 31V190C135 195.523 130.523 200 125 200H10C4.47715 200 0 195.523 0 190V10Z" fill="white"/>
<g filter="url(#filter0_d_17_223)">
<path d="M104 0L135 31H114C108.477 31 104 26.5228 104 21V0Z" fill="#CCCCCC"/>
</g>
<g filter="url(#filter1_d_17_223)">
<rect x="17" y="50" width="100" height="100" rx="10" fill="#F7DF1E"/>
<g filter="url(#filter2_d_17_223)">
<path d="M50.3034 141.443C49.2682 140.838 48.8776 140.105 49.1315 139.246L50.362 135.232C50.7135 134.08 51.6315 133.963 53.1159 134.881C54.3854 135.682 55.8014 136.082 57.3639 136.082C59.5124 136.082 60.9089 135.34 61.5534 133.855C62.2175 132.371 62.5495 129.9 62.5495 126.443V102.186C62.5495 100.721 63.2331 99.9883 64.6003 99.9883H69.0534C70.4206 99.9883 71.1042 100.721 71.1042 102.186V125.857C71.1042 133.045 69.8932 137.703 67.4714 139.832C65.069 141.941 61.7292 142.996 57.4518 142.996C54.4635 142.996 52.0807 142.479 50.3034 141.443ZM80.6257 138.865C79.4147 137.947 79.1217 137.02 79.7467 136.082L82.0026 132.684C82.7448 131.57 83.8288 131.512 85.2546 132.508C86.3483 133.27 87.7741 134.061 89.5319 134.881C91.3092 135.682 93.1745 136.082 95.1276 136.082C96.4948 136.082 97.8132 135.926 99.0827 135.613C100.352 135.301 101.319 134.695 101.983 133.797C102.647 132.898 102.979 131.834 102.979 130.604C102.979 129.725 102.833 128.953 102.54 128.289C102.247 127.625 101.768 127.078 101.104 126.648C100.44 126.219 99.7565 125.857 99.0534 125.564C97.8229 125.057 96.2702 124.559 94.3952 124.07C92.5397 123.562 90.7038 122.957 88.8874 122.254C87.2663 121.629 85.7819 120.77 84.4342 119.676C83.0866 118.582 82.0417 117.352 81.2995 115.984C80.5573 114.617 80.1862 112.791 80.1862 110.506C80.1862 107.791 81.0651 105.467 82.8229 103.533C84.5807 101.6 86.6022 100.359 88.8874 99.8125C91.1725 99.2656 93.4772 98.9922 95.8014 98.9922C98.1061 98.9922 100.479 99.3438 102.921 100.047C105.382 100.75 107.237 101.629 108.487 102.684C109.717 103.719 110.02 104.656 109.395 105.496L107.022 108.689C106.221 109.783 105.147 109.871 103.799 108.953C102.94 108.367 101.758 107.713 100.255 106.99C98.7702 106.268 97.2175 105.906 95.5964 105.906C94.444 105.906 93.3796 106.004 92.403 106.199C91.446 106.395 90.5964 106.863 89.8542 107.605C89.112 108.348 88.7409 109.266 88.7409 110.359C88.7409 111.414 89.0143 112.273 89.5612 112.938C90.1081 113.582 90.7135 114.07 91.3776 114.402C92.0417 114.715 92.7155 114.979 93.3991 115.193C95.5085 115.877 97.3932 116.482 99.0534 117.01C100.714 117.518 102.247 118.084 103.653 118.709C105.606 119.588 107.1 120.467 108.135 121.346C109.171 122.225 110.02 123.426 110.684 124.949C111.368 126.473 111.71 128.289 111.71 130.398C111.71 133.523 110.714 136.111 108.721 138.162C106.729 140.193 104.512 141.502 102.071 142.088C99.6491 142.693 97.2858 142.996 94.9811 142.996C91.5827 142.996 88.819 142.664 86.6901 142C84.5612 141.355 82.5397 140.311 80.6257 138.865Z" fill="black"/>
</g>
</g>
<path d="M62.8345 181.666C62.8345 182.463 62.6921 183.212 62.4072 183.912C62.1224 184.603 61.6992 185.189 61.1377 185.669C60.5436 186.182 59.8275 186.581 58.9893 186.866C58.151 187.142 57.1134 187.281 55.8765 187.281C55.0382 187.281 54.2489 187.248 53.5083 187.183C52.7677 187.126 52.1167 187.041 51.5552 186.927V183.24H51.9946C52.3853 183.387 52.7922 183.525 53.2153 183.655C53.6385 183.777 54.1797 183.838 54.8389 183.838C55.6934 183.838 56.3485 183.724 56.8042 183.497C57.2681 183.269 57.5977 182.951 57.793 182.544C57.9801 182.146 58.0859 181.71 58.1104 181.238C58.1348 180.758 58.147 180.148 58.147 179.407V172.168H53.9844V168.824H62.8345V181.666ZM83.0542 181.287C83.0542 183.077 82.2933 184.534 80.7715 185.657C79.2578 186.772 77.1989 187.33 74.5947 187.33C73.0892 187.33 71.7749 187.199 70.6519 186.939C69.5369 186.67 68.4912 186.333 67.5146 185.926V181.568H68.0273C68.9958 182.341 70.0781 182.935 71.2744 183.35C72.4788 183.765 73.6344 183.973 74.7412 183.973C75.026 183.973 75.4004 183.948 75.8643 183.899C76.3281 183.851 76.7065 183.769 76.9995 183.655C77.3576 183.509 77.6506 183.326 77.8784 183.106C78.1144 182.886 78.2324 182.561 78.2324 182.129C78.2324 181.731 78.0615 181.389 77.7197 181.104C77.3861 180.811 76.8937 180.587 76.2427 180.433C75.5591 180.27 74.8348 180.119 74.0698 179.981C73.313 179.834 72.6009 179.651 71.9336 179.432C70.4036 178.935 69.3009 178.264 68.6255 177.417C67.9582 176.563 67.6245 175.505 67.6245 174.244C67.6245 172.551 68.3813 171.172 69.895 170.105C71.4168 169.031 73.37 168.494 75.7544 168.494C76.9507 168.494 78.1307 168.612 79.2944 168.848C80.4663 169.076 81.4795 169.365 82.334 169.715V173.902H81.8335C81.1011 173.316 80.2018 172.828 79.1357 172.437C78.0778 172.038 76.9954 171.839 75.8887 171.839C75.498 171.839 75.1074 171.867 74.7168 171.924C74.3343 171.973 73.964 172.071 73.606 172.217C73.2886 172.339 73.016 172.527 72.7881 172.779C72.5602 173.023 72.4463 173.304 72.4463 173.621C72.4463 174.101 72.6294 174.472 72.9956 174.732C73.3618 174.984 74.0535 175.216 75.0708 175.428C75.7381 175.566 76.377 175.7 76.9873 175.831C77.6058 175.961 78.269 176.14 78.9771 176.368C80.3687 176.823 81.394 177.446 82.0532 178.235C82.7205 179.017 83.0542 180.034 83.0542 181.287Z" fill="#3B3B3B"/>
<defs>
<filter id="filter0_d_17_223" x="100" y="0" width="39" height="39" filterUnits="userSpaceOnUse" color-interpolation-filters="sRGB">
<feFlood flood-opacity="0" result="BackgroundImageFix"/>
<feColorMatrix in="SourceAlpha" type="matrix" values="0 0 0 0 0 0 0 0 0 0 0 0 0 0 0 0 0 0 127 0" result="hardAlpha"/>
<feOffset dy="4"/>
<feGaussianBlur stdDeviation="2"/>
<feComposite in2="hardAlpha" operator="out"/>
<feColorMatrix type="matrix" values="0 0 0 0 0 0 0 0 0 0 0 0 0 0 0 0 0 0 0.25 0"/>
<feBlend mode="normal" in2="BackgroundImageFix" result="effect1_dropShadow_17_223"/>
<feBlend mode="normal" in="SourceGraphic" in2="effect1_dropShadow_17_223" result="shape"/>
</filter>
<filter id="filter1_d_17_223" x="13" y="50" width="108" height="108" filterUnits="userSpaceOnUse" color-interpolation-filters="sRGB">
<feFlood flood-opacity="0" result="BackgroundImageFix"/>
<feColorMatrix in="SourceAlpha" type="matrix" values="0 0 0 0 0 0 0 0 0 0 0 0 0 0 0 0 0 0 127 0" result="hardAlpha"/>
<feOffset dy="4"/>
<feGaussianBlur stdDeviation="2"/>
<feComposite in2="hardAlpha" operator="out"/>
<feColorMatrix type="matrix" values="0 0 0 0 0 0 0 0 0 0 0 0 0 0 0 0 0 0 0.25 0"/>
<feBlend mode="normal" in2="BackgroundImageFix" result="effect1_dropShadow_17_223"/>
<feBlend mode="normal" in="SourceGraphic" in2="effect1_dropShadow_17_223" result="shape"/>
</filter>
<filter id="filter2_d_17_223" x="44.7507" y="98.9922" width="70.959" height="52.0039" filterUnits="userSpaceOnUse" color-interpolation-filters="sRGB">
<feFlood flood-opacity="0" result="BackgroundImageFix"/>
<feColorMatrix in="SourceAlpha" type="matrix" values="0 0 0 0 0 0 0 0 0 0 0 0 0 0 0 0 0 0 127 0" result="hardAlpha"/>
<feOffset dy="4"/>
<feGaussianBlur stdDeviation="2"/>
<feComposite in2="hardAlpha" operator="out"/>
<feColorMatrix type="matrix" values="0 0 0 0 0 0 0 0 0 0 0 0 0 0 0 0 0 0 0.25 0"/>
<feBlend mode="normal" in2="BackgroundImageFix" result="effect1_dropShadow_17_223"/>
<feBlend mode="normal" in="SourceGraphic" in2="effect1_dropShadow_17_223" result="shape"/>
</filter>
</defs>
</svg>
