<svg width="139" height="200" viewBox="0 0 139 200" fill="none" xmlns="http://www.w3.org/2000/svg">
<path d="M0 10C0 4.47716 4.47715 0 10 0H67.5H104L135 31V190C135 195.523 130.523 200 125 200H10C4.47715 200 0 195.523 0 190V10Z" fill="white"/>
<g filter="url(#filter0_d_33_864)">
<path d="M104 0L135 31H114C108.477 31 104 26.5228 104 21V0Z" fill="#CCCCCC"/>
</g>
<path d="M37.876 168.824L31.2476 187H25.9985L19.3701 168.824H24.2896L28.6841 181.592L33.0786 168.824H37.876ZM51.5649 187H40.9204V183.777H43.8989V172.046H40.9204V168.824H51.5649V172.046H48.5864V183.777H51.5649V187ZM73.811 177.93C73.811 179.623 73.4245 181.141 72.6514 182.483C71.8783 183.818 70.9017 184.843 69.7217 185.56C68.8346 186.097 67.8621 186.471 66.8042 186.683C65.7463 186.894 64.493 187 63.0444 187H56.6357V168.824H63.2275C64.7087 168.824 65.9863 168.95 67.0605 169.202C68.1348 169.446 69.0381 169.796 69.7705 170.252C71.0238 171.017 72.0085 172.05 72.7246 173.353C73.4489 174.646 73.811 176.172 73.811 177.93ZM68.9648 177.894C68.9648 176.697 68.7451 175.676 68.3057 174.83C67.8743 173.975 67.1867 173.308 66.2427 172.828C65.7625 172.592 65.2702 172.433 64.7656 172.352C64.2692 172.262 63.5164 172.217 62.5073 172.217H61.3232V183.594H62.5073C63.6222 183.594 64.4401 183.545 64.9609 183.448C65.4818 183.342 65.9904 183.155 66.4868 182.886C67.3413 182.398 67.9679 181.747 68.3667 180.933C68.7655 180.111 68.9648 179.098 68.9648 177.894ZM91.7847 187H78.6377V168.824H91.7847V172.339H83.3008V175.477H91.1743V178.992H83.3008V183.484H91.7847V187ZM114.653 177.918C114.653 180.815 113.823 183.118 112.163 184.827C110.503 186.528 108.208 187.378 105.278 187.378C102.357 187.378 100.066 186.528 98.4058 184.827C96.7456 183.118 95.9155 180.815 95.9155 177.918C95.9155 174.996 96.7456 172.689 98.4058 170.997C100.066 169.296 102.357 168.445 105.278 168.445C108.192 168.445 110.483 169.296 112.151 170.997C113.819 172.689 114.653 174.996 114.653 177.918ZM108.44 182.52C108.896 181.967 109.233 181.316 109.453 180.567C109.673 179.81 109.783 178.923 109.783 177.906C109.783 176.815 109.657 175.888 109.404 175.123C109.152 174.358 108.822 173.739 108.416 173.267C108 172.779 107.52 172.425 106.975 172.205C106.438 171.985 105.876 171.875 105.291 171.875C104.696 171.875 104.135 171.981 103.606 172.193C103.085 172.404 102.605 172.754 102.166 173.243C101.759 173.698 101.425 174.329 101.165 175.135C100.912 175.932 100.786 176.86 100.786 177.918C100.786 179 100.908 179.924 101.152 180.689C101.405 181.446 101.734 182.064 102.141 182.544C102.548 183.025 103.024 183.379 103.569 183.606C104.115 183.834 104.688 183.948 105.291 183.948C105.893 183.948 106.466 183.834 107.012 183.606C107.557 183.37 108.033 183.008 108.44 182.52Z" fill="#3B3B3B"/>
<g filter="url(#filter1_d_33_864)">
<path d="M107.654 65C112.816 65 117 69.1842 117 74.3457V124.813C117 129.975 112.816 134.159 107.654 134.159H26.3457C21.1843 134.159 17.0002 129.975 17 124.813V74.3457C17 69.1842 21.1842 65 26.3457 65H107.654ZM59.5234 111.72L80.5518 99.5791L59.5234 87.4385V111.72Z" fill="#16825A"/>
</g>
<defs>
<filter id="filter0_d_33_864" x="100" y="0" width="39" height="39" filterUnits="userSpaceOnUse" color-interpolation-filters="sRGB">
<feFlood flood-opacity="0" result="BackgroundImageFix"/>
<feColorMatrix in="SourceAlpha" type="matrix" values="0 0 0 0 0 0 0 0 0 0 0 0 0 0 0 0 0 0 127 0" result="hardAlpha"/>
<feOffset dy="4"/>
<feGaussianBlur stdDeviation="2"/>
<feComposite in2="hardAlpha" operator="out"/>
<feColorMatrix type="matrix" values="0 0 0 0 0 0 0 0 0 0 0 0 0 0 0 0 0 0 0.25 0"/>
<feBlend mode="normal" in2="BackgroundImageFix" result="effect1_dropShadow_33_864"/>
<feBlend mode="normal" in="SourceGraphic" in2="effect1_dropShadow_33_864" result="shape"/>
</filter>
<filter id="filter1_d_33_864" x="13.2617" y="65" width="107.477" height="76.6358" filterUnits="userSpaceOnUse" color-interpolation-filters="sRGB">
<feFlood flood-opacity="0" result="BackgroundImageFix"/>
<feColorMatrix in="SourceAlpha" type="matrix" values="0 0 0 0 0 0 0 0 0 0 0 0 0 0 0 0 0 0 127 0" result="hardAlpha"/>
<feOffset dy="3.73832"/>
<feGaussianBlur stdDeviation="1.86916"/>
<feComposite in2="hardAlpha" operator="out"/>
<feColorMatrix type="matrix" values="0 0 0 0 0 0 0 0 0 0 0 0 0 0 0 0 0 0 0.25 0"/>
<feBlend mode="normal" in2="BackgroundImageFix" result="effect1_dropShadow_33_864"/>
<feBlend mode="normal" in="SourceGraphic" in2="effect1_dropShadow_33_864" result="shape"/>
</filter>
</defs>
</svg>
