<svg width="139" height="200" viewBox="0 0 139 200" fill="none" xmlns="http://www.w3.org/2000/svg">
<path d="M0 10C0 4.47716 4.47715 0 10 0H67.5H104L135 31V190C135 195.523 130.523 200 125 200H10C4.47715 200 0 195.523 0 190V10Z" fill="white"/>
<g filter="url(#filter0_d_18_21)">
<path d="M104 0L135 31H114C108.477 31 104 26.5228 104 21V0Z" fill="#CCCCCC"/>
</g>
<g filter="url(#filter1_d_18_21)">
<rect x="17" y="50" width="100" height="100" rx="10" fill="#3178C6"/>
<g filter="url(#filter2_d_18_21)">
<path d="M44.1934 107.488C42.7285 107.488 41.9961 106.854 41.9961 105.584V101.893C41.9961 100.623 42.7285 99.9883 44.1934 99.9883H74.3105C75.7754 99.9883 76.5078 100.623 76.5078 101.893V105.584C76.5078 106.854 75.7754 107.488 74.3105 107.488H63.5293V140.389C63.5293 141.463 63.041 142 62.0645 142H56.4395C55.4629 142 54.9746 141.463 54.9746 140.389V107.488H44.1934ZM82.6895 138.865C81.4785 137.947 81.1855 137.02 81.8105 136.082L84.0664 132.684C84.8086 131.57 85.8926 131.512 87.3184 132.508C88.4121 133.27 89.8379 134.061 91.5957 134.881C93.373 135.682 95.2383 136.082 97.1914 136.082C98.5586 136.082 99.877 135.926 101.146 135.613C102.416 135.301 103.383 134.695 104.047 133.797C104.711 132.898 105.043 131.834 105.043 130.604C105.043 129.725 104.896 128.953 104.604 128.289C104.311 127.625 103.832 127.078 103.168 126.648C102.504 126.219 101.82 125.857 101.117 125.564C99.8867 125.057 98.334 124.559 96.459 124.07C94.6035 123.562 92.7676 122.957 90.9512 122.254C89.3301 121.629 87.8457 120.77 86.498 119.676C85.1504 118.582 84.1055 117.352 83.3633 115.984C82.6211 114.617 82.25 112.791 82.25 110.506C82.25 107.791 83.1289 105.467 84.8867 103.533C86.6445 101.6 88.666 100.359 90.9512 99.8125C93.2363 99.2656 95.541 98.9922 97.8652 98.9922C100.17 98.9922 102.543 99.3438 104.984 100.047C107.445 100.75 109.301 101.629 110.551 102.684C111.781 103.719 112.084 104.656 111.459 105.496L109.086 108.689C108.285 109.783 107.211 109.871 105.863 108.953C105.004 108.367 103.822 107.713 102.318 106.99C100.834 106.268 99.2812 105.906 97.6602 105.906C96.5078 105.906 95.4434 106.004 94.4668 106.199C93.5098 106.395 92.6602 106.863 91.918 107.605C91.1758 108.348 90.8047 109.266 90.8047 110.359C90.8047 111.414 91.0781 112.273 91.625 112.938C92.1719 113.582 92.7773 114.07 93.4414 114.402C94.1055 114.715 94.7793 114.979 95.4629 115.193C97.5723 115.877 99.457 116.482 101.117 117.01C102.777 117.518 104.311 118.084 105.717 118.709C107.67 119.588 109.164 120.467 110.199 121.346C111.234 122.225 112.084 123.426 112.748 124.949C113.432 126.473 113.773 128.289 113.773 130.398C113.773 133.523 112.777 136.111 110.785 138.162C108.793 140.193 106.576 141.502 104.135 142.088C101.713 142.693 99.3496 142.996 97.0449 142.996C93.6465 142.996 90.8828 142.664 88.7539 142C86.625 141.355 84.6035 140.311 82.6895 138.865Z" fill="white"/>
</g>
</g>
<path d="M66.0083 172.339H60.332V187H55.6445V172.339H49.9683V168.824H66.0083V172.339ZM84.6289 181.287C84.6289 183.077 83.868 184.534 82.3462 185.657C80.8325 186.772 78.7736 187.33 76.1694 187.33C74.6639 187.33 73.3496 187.199 72.2266 186.939C71.1117 186.67 70.0659 186.333 69.0894 185.926V181.568H69.6021C70.5705 182.341 71.6528 182.935 72.8491 183.35C74.0535 183.765 75.2091 183.973 76.3159 183.973C76.6007 183.973 76.9751 183.948 77.439 183.899C77.9028 183.851 78.2812 183.769 78.5742 183.655C78.9323 183.509 79.2253 183.326 79.4531 183.106C79.6891 182.886 79.8071 182.561 79.8071 182.129C79.8071 181.731 79.6362 181.389 79.2944 181.104C78.9608 180.811 78.4684 180.587 77.8174 180.433C77.1338 180.27 76.4095 180.119 75.6445 179.981C74.8877 179.834 74.1756 179.651 73.5083 179.432C71.9784 178.935 70.8757 178.264 70.2002 177.417C69.5329 176.563 69.1992 175.505 69.1992 174.244C69.1992 172.551 69.9561 171.172 71.4697 170.105C72.9915 169.031 74.9447 168.494 77.3291 168.494C78.5254 168.494 79.7054 168.612 80.8691 168.848C82.041 169.076 83.0542 169.365 83.9087 169.715V173.902H83.4082C82.6758 173.316 81.7765 172.828 80.7104 172.437C79.6525 172.038 78.5701 171.839 77.4634 171.839C77.0728 171.839 76.6821 171.867 76.2915 171.924C75.909 171.973 75.5387 172.071 75.1807 172.217C74.8633 172.339 74.5907 172.527 74.3628 172.779C74.1349 173.023 74.021 173.304 74.021 173.621C74.021 174.101 74.2041 174.472 74.5703 174.732C74.9365 174.984 75.6283 175.216 76.6455 175.428C77.3128 175.566 77.9517 175.7 78.562 175.831C79.1805 175.961 79.8438 176.14 80.5518 176.368C81.9434 176.823 82.9688 177.446 83.6279 178.235C84.2952 179.017 84.6289 180.034 84.6289 181.287Z" fill="#3B3B3B"/>
<defs>
<filter id="filter0_d_18_21" x="100" y="0" width="39" height="39" filterUnits="userSpaceOnUse" color-interpolation-filters="sRGB">
<feFlood flood-opacity="0" result="BackgroundImageFix"/>
<feColorMatrix in="SourceAlpha" type="matrix" values="0 0 0 0 0 0 0 0 0 0 0 0 0 0 0 0 0 0 127 0" result="hardAlpha"/>
<feOffset dy="4"/>
<feGaussianBlur stdDeviation="2"/>
<feComposite in2="hardAlpha" operator="out"/>
<feColorMatrix type="matrix" values="0 0 0 0 0 0 0 0 0 0 0 0 0 0 0 0 0 0 0.25 0"/>
<feBlend mode="normal" in2="BackgroundImageFix" result="effect1_dropShadow_18_21"/>
<feBlend mode="normal" in="SourceGraphic" in2="effect1_dropShadow_18_21" result="shape"/>
</filter>
<filter id="filter1_d_18_21" x="13" y="50" width="108" height="108" filterUnits="userSpaceOnUse" color-interpolation-filters="sRGB">
<feFlood flood-opacity="0" result="BackgroundImageFix"/>
<feColorMatrix in="SourceAlpha" type="matrix" values="0 0 0 0 0 0 0 0 0 0 0 0 0 0 0 0 0 0 127 0" result="hardAlpha"/>
<feOffset dy="4"/>
<feGaussianBlur stdDeviation="2"/>
<feComposite in2="hardAlpha" operator="out"/>
<feColorMatrix type="matrix" values="0 0 0 0 0 0 0 0 0 0 0 0 0 0 0 0 0 0 0.25 0"/>
<feBlend mode="normal" in2="BackgroundImageFix" result="effect1_dropShadow_18_21"/>
<feBlend mode="normal" in="SourceGraphic" in2="effect1_dropShadow_18_21" result="shape"/>
</filter>
<filter id="filter2_d_18_21" x="37.9961" y="98.9922" width="79.7773" height="52.0039" filterUnits="userSpaceOnUse" color-interpolation-filters="sRGB">
<feFlood flood-opacity="0" result="BackgroundImageFix"/>
<feColorMatrix in="SourceAlpha" type="matrix" values="0 0 0 0 0 0 0 0 0 0 0 0 0 0 0 0 0 0 127 0" result="hardAlpha"/>
<feOffset dy="4"/>
<feGaussianBlur stdDeviation="2"/>
<feComposite in2="hardAlpha" operator="out"/>
<feColorMatrix type="matrix" values="0 0 0 0 0 0 0 0 0 0 0 0 0 0 0 0 0 0 0.25 0"/>
<feBlend mode="normal" in2="BackgroundImageFix" result="effect1_dropShadow_18_21"/>
<feBlend mode="normal" in="SourceGraphic" in2="effect1_dropShadow_18_21" result="shape"/>
</filter>
</defs>
</svg>
