<svg width="139" height="200" viewBox="0 0 139 200" fill="none" xmlns="http://www.w3.org/2000/svg">
<path d="M0 10C0 4.47716 4.47715 0 10 0H67.5H104L135 31V190C135 195.523 130.523 200 125 200H10C4.47715 200 0 195.523 0 190V10Z" fill="white"/>
<g filter="url(#filter0_d_14_8)">
<path d="M104 0L135 31H114C108.477 31 104 26.5228 104 21V0Z" fill="#CCCCCC"/>
</g>
<path d="M37.561 187.354C36.2101 187.354 34.9609 187.155 33.8135 186.756C32.6742 186.357 31.6935 185.763 30.8716 184.974C30.0496 184.184 29.4108 183.2 28.9551 182.02C28.5075 180.84 28.2837 179.476 28.2837 177.93C28.2837 176.49 28.4993 175.184 28.9307 174.012C29.362 172.84 29.9886 171.835 30.8105 170.997C31.5999 170.191 32.5765 169.568 33.7402 169.129C34.9121 168.689 36.1898 168.47 37.5732 168.47C38.3382 168.47 39.0259 168.514 39.6362 168.604C40.2547 168.685 40.8244 168.795 41.3452 168.934C41.8905 169.088 42.3828 169.263 42.8223 169.458C43.2699 169.646 43.6605 169.821 43.9941 169.983V174.39H43.457C43.2292 174.195 42.9403 173.963 42.5903 173.694C42.2485 173.426 41.8579 173.161 41.4185 172.901C40.9709 172.64 40.4867 172.421 39.9658 172.242C39.445 172.063 38.8875 171.973 38.2935 171.973C37.6343 171.973 37.0076 172.079 36.4136 172.291C35.8195 172.494 35.2702 172.836 34.7656 173.316C34.2855 173.78 33.8949 174.394 33.5938 175.159C33.3008 175.924 33.1543 176.852 33.1543 177.942C33.1543 179.082 33.313 180.034 33.6304 180.799C33.9559 181.564 34.3628 182.166 34.8511 182.605C35.3475 183.053 35.9009 183.375 36.5112 183.57C37.1216 183.757 37.7238 183.851 38.3179 183.851C38.8875 183.851 39.4491 183.765 40.0024 183.594C40.564 183.423 41.0807 183.191 41.5527 182.898C41.9515 182.662 42.3218 182.41 42.6636 182.142C43.0054 181.873 43.2861 181.641 43.5059 181.446H43.9941V185.792C43.5384 185.995 43.103 186.186 42.688 186.365C42.2729 186.544 41.8376 186.699 41.3818 186.829C40.7878 187 40.2303 187.13 39.7095 187.22C39.1886 187.309 38.4725 187.354 37.561 187.354ZM66.3623 177.918C66.3623 180.815 65.5322 183.118 63.8721 184.827C62.2119 186.528 59.917 187.378 56.9873 187.378C54.0658 187.378 51.7749 186.528 50.1147 184.827C48.4546 183.118 47.6245 180.815 47.6245 177.918C47.6245 174.996 48.4546 172.689 50.1147 170.997C51.7749 169.296 54.0658 168.445 56.9873 168.445C59.9007 168.445 62.1916 169.296 63.8599 170.997C65.5282 172.689 66.3623 174.996 66.3623 177.918ZM60.1489 182.52C60.6047 181.967 60.9424 181.316 61.1621 180.567C61.3818 179.81 61.4917 178.923 61.4917 177.906C61.4917 176.815 61.3656 175.888 61.1133 175.123C60.861 174.358 60.5314 173.739 60.1245 173.267C59.7095 172.779 59.2293 172.425 58.6841 172.205C58.147 171.985 57.5854 171.875 56.9995 171.875C56.4054 171.875 55.8439 171.981 55.3149 172.193C54.7941 172.404 54.314 172.754 53.8745 173.243C53.4676 173.698 53.134 174.329 52.8735 175.135C52.6213 175.932 52.4951 176.86 52.4951 177.918C52.4951 179 52.6172 179.924 52.8613 180.689C53.1136 181.446 53.4432 182.064 53.8501 182.544C54.257 183.025 54.7331 183.379 55.2783 183.606C55.8236 183.834 56.3973 183.948 56.9995 183.948C57.6017 183.948 58.1755 183.834 58.7207 183.606C59.266 183.37 59.742 183.008 60.1489 182.52ZM88.3765 177.93C88.3765 179.623 87.9899 181.141 87.2168 182.483C86.4437 183.818 85.4671 184.843 84.2871 185.56C83.4001 186.097 82.4276 186.471 81.3696 186.683C80.3117 186.894 79.0584 187 77.6099 187H71.2012V168.824H77.793C79.2741 168.824 80.5518 168.95 81.626 169.202C82.7002 169.446 83.6035 169.796 84.3359 170.252C85.5892 171.017 86.5739 172.05 87.29 173.353C88.0143 174.646 88.3765 176.172 88.3765 177.93ZM83.5303 177.894C83.5303 176.697 83.3105 175.676 82.8711 174.83C82.4398 173.975 81.7521 173.308 80.8081 172.828C80.328 172.592 79.8356 172.433 79.3311 172.352C78.8346 172.262 78.0819 172.217 77.0728 172.217H75.8887V183.594H77.0728C78.1877 183.594 79.0055 183.545 79.5264 183.448C80.0472 183.342 80.5558 183.155 81.0522 182.886C81.9067 182.398 82.5334 181.747 82.9321 180.933C83.3309 180.111 83.5303 179.098 83.5303 177.894ZM106.35 187H93.2031V168.824H106.35V172.339H97.8662V175.477H105.74V178.992H97.8662V183.484H106.35V187Z" fill="#3B3B3B"/>
<path d="M73.1728 78H79.963L61.4444 122.444H54.037L73.1728 78Z" fill="black"/>
<path d="M84.9012 86.642L117 98.9876V106.395L84.9012 94.0494V86.642Z" fill="black"/>
<path d="M84.9012 118.741L117 106.395V98.9877L84.9012 111.333V118.741Z" fill="black"/>
<path d="M49.0988 86.642L17 98.9876V106.395L49.0988 94.0494V86.642Z" fill="black"/>
<path d="M49.0988 118.741L17 106.395V98.9877L49.0988 111.333V118.741Z" fill="black"/>
<defs>
<filter id="filter0_d_14_8" x="100" y="0" width="39" height="39" filterUnits="userSpaceOnUse" color-interpolation-filters="sRGB">
<feFlood flood-opacity="0" result="BackgroundImageFix"/>
<feColorMatrix in="SourceAlpha" type="matrix" values="0 0 0 0 0 0 0 0 0 0 0 0 0 0 0 0 0 0 127 0" result="hardAlpha"/>
<feOffset dy="4"/>
<feGaussianBlur stdDeviation="2"/>
<feComposite in2="hardAlpha" operator="out"/>
<feColorMatrix type="matrix" values="0 0 0 0 0 0 0 0 0 0 0 0 0 0 0 0 0 0 0.25 0"/>
<feBlend mode="normal" in2="BackgroundImageFix" result="effect1_dropShadow_14_8"/>
<feBlend mode="normal" in="SourceGraphic" in2="effect1_dropShadow_14_8" result="shape"/>
</filter>
</defs>
</svg>
