<svg width="139" height="200" viewBox="0 0 139 200" fill="none" xmlns="http://www.w3.org/2000/svg">
<path d="M0 10C0 4.47716 4.47715 0 10 0H67.5H104L135 31V190C135 195.523 130.523 200 125 200H10C4.47715 200 0 195.523 0 190V10Z" fill="white"/>
<g filter="url(#filter0_d_32_424)">
<path d="M104 0L135 31H114C108.477 31 104 26.5228 104 21V0Z" fill="#CCCCCC"/>
</g>
<path d="M39.8687 177.666C39.8687 178.463 39.7262 179.212 39.4414 179.912C39.1566 180.603 38.7334 181.189 38.1719 181.669C37.5778 182.182 36.8617 182.581 36.0234 182.866C35.1852 183.142 34.1476 183.281 32.9106 183.281C32.0724 183.281 31.283 183.248 30.5425 183.183C29.8019 183.126 29.1509 183.041 28.5894 182.927V179.24H29.0288C29.4194 179.387 29.8263 179.525 30.2495 179.655C30.6727 179.777 31.2139 179.838 31.873 179.838C32.7275 179.838 33.3826 179.724 33.8384 179.497C34.3022 179.269 34.6318 178.951 34.8271 178.544C35.0143 178.146 35.1201 177.71 35.1445 177.238C35.1689 176.758 35.1812 176.148 35.1812 175.407V168.168H31.0186V164.824H39.8687V177.666ZM60.0884 177.287C60.0884 179.077 59.3275 180.534 57.8057 181.657C56.292 182.772 54.2331 183.33 51.6289 183.33C50.1234 183.33 48.8091 183.199 47.686 182.939C46.5711 182.67 45.5254 182.333 44.5488 181.926V177.568H45.0615C46.0299 178.341 47.1123 178.935 48.3086 179.35C49.513 179.765 50.6686 179.973 51.7754 179.973C52.0602 179.973 52.4346 179.948 52.8984 179.899C53.3623 179.851 53.7407 179.769 54.0337 179.655C54.3918 179.509 54.6847 179.326 54.9126 179.106C55.1486 178.886 55.2666 178.561 55.2666 178.129C55.2666 177.731 55.0957 177.389 54.7539 177.104C54.4202 176.811 53.9279 176.587 53.2769 176.433C52.5933 176.27 51.869 176.119 51.104 175.981C50.3472 175.834 49.6351 175.651 48.9678 175.432C47.4378 174.935 46.3351 174.264 45.6597 173.417C44.9924 172.563 44.6587 171.505 44.6587 170.244C44.6587 168.551 45.4155 167.172 46.9292 166.105C48.451 165.031 50.4041 164.494 52.7886 164.494C53.9849 164.494 55.1649 164.612 56.3286 164.848C57.5005 165.076 58.5137 165.365 59.3682 165.715V169.902H58.8677C58.1353 169.316 57.236 168.828 56.1699 168.437C55.112 168.038 54.0296 167.839 52.9229 167.839C52.5322 167.839 52.1416 167.867 51.751 167.924C51.3685 167.973 50.9982 168.071 50.6401 168.217C50.3228 168.339 50.0501 168.527 49.8223 168.779C49.5944 169.023 49.4805 169.304 49.4805 169.621C49.4805 170.101 49.6636 170.472 50.0298 170.732C50.396 170.984 51.0877 171.216 52.105 171.428C52.7723 171.566 53.4111 171.7 54.0215 171.831C54.64 171.961 55.3032 172.14 56.0112 172.368C57.4028 172.823 58.4282 173.446 59.0874 174.235C59.7547 175.017 60.0884 176.034 60.0884 177.287ZM82.2368 173.918C82.2368 176.815 81.4067 179.118 79.7466 180.827C78.0864 182.528 75.7915 183.378 72.8618 183.378C69.9403 183.378 67.6494 182.528 65.9893 180.827C64.3291 179.118 63.499 176.815 63.499 173.918C63.499 170.996 64.3291 168.689 65.9893 166.997C67.6494 165.296 69.9403 164.445 72.8618 164.445C75.7752 164.445 78.0661 165.296 79.7344 166.997C81.4027 168.689 82.2368 170.996 82.2368 173.918ZM76.0234 178.52C76.4792 177.967 76.8169 177.316 77.0366 176.567C77.2563 175.81 77.3662 174.923 77.3662 173.906C77.3662 172.815 77.2401 171.888 76.9878 171.123C76.7355 170.358 76.4059 169.739 75.999 169.267C75.584 168.779 75.1038 168.425 74.5586 168.205C74.0215 167.985 73.46 167.875 72.874 167.875C72.2799 167.875 71.7184 167.981 71.1895 168.193C70.6686 168.404 70.1885 168.754 69.749 169.243C69.3421 169.698 69.0085 170.329 68.748 171.135C68.4958 171.932 68.3696 172.86 68.3696 173.918C68.3696 175 68.4917 175.924 68.7358 176.689C68.9881 177.446 69.3177 178.064 69.7246 178.544C70.1315 179.025 70.6076 179.379 71.1528 179.606C71.6981 179.834 72.2718 179.948 72.874 179.948C73.4762 179.948 74.05 179.834 74.5952 179.606C75.1405 179.37 75.6165 179.008 76.0234 178.52ZM103.604 183H99.0874L91.3726 170.524V183H87.0757V164.824H92.6787L99.3071 175.236V164.824H103.604V183Z" fill="#3B3B3B"/>
<g filter="url(#filter1_d_32_424)">
<path d="M60.0512 134.503V142.221H53.9898C47.2818 142.221 42.7829 141.224 40.493 139.231C38.2301 137.237 37.0986 133.263 37.0986 127.31V118.622C37.0986 114.554 36.3712 111.752 34.9165 110.217C33.4887 108.654 30.889 107.873 27.1175 107.873H24.6121V100.155H27.1175C30.889 100.155 33.4887 99.3868 34.9165 97.8513C36.3712 96.3157 37.0986 93.5005 37.0986 89.4057V80.7177C37.0986 74.764 38.2301 70.8039 40.493 68.8373C42.7829 66.8437 47.2818 65.847 53.9898 65.847H60.0512V73.5248H55.0808C52.2791 73.5248 50.4068 74.0905 49.4639 75.222C48.521 76.3534 48.0496 78.8453 48.0496 82.6977V91.1433C48.0496 95.5883 47.3895 98.7133 46.0695 100.518C44.7495 102.323 42.3922 103.482 38.9978 103.994C42.3922 104.559 44.7495 105.758 46.0695 107.59C47.3895 109.422 48.0496 112.547 48.0496 116.965V125.249C48.0496 129.128 48.521 131.634 49.4639 132.765C50.4068 133.923 52.2791 134.503 55.0808 134.503H60.0512ZM74.639 134.503H79.5286C82.3303 134.503 84.2161 133.923 85.1859 132.765C86.1557 131.607 86.6406 129.101 86.6406 125.249V116.965C86.6406 112.547 87.3006 109.422 88.6207 107.59C89.9407 105.758 92.2845 104.559 95.6519 103.994C92.2575 103.482 89.9003 102.323 88.5803 100.518C87.2872 98.7133 86.6406 95.5883 86.6406 91.1433V82.6977C86.6406 78.8992 86.1557 76.4208 85.1859 75.2624C84.243 74.104 82.3572 73.5248 79.5286 73.5248H74.639V65.847H80.7004C87.3815 65.847 91.84 66.8437 94.076 68.8373C96.3389 70.8039 97.4704 74.764 97.4704 80.7177V89.4057C97.4704 93.4736 98.1977 96.2888 99.6525 97.8513C101.134 99.3868 103.774 100.155 107.573 100.155H110.078V107.873H107.573C103.774 107.873 101.134 108.654 99.6525 110.217C98.1977 111.779 97.4704 114.581 97.4704 118.622V127.31C97.4704 133.263 96.3389 137.237 94.076 139.231C91.84 141.224 87.3815 142.221 80.7004 142.221H74.639V134.503Z" fill="black"/>
</g>
<defs>
<filter id="filter0_d_32_424" x="100" y="0" width="39" height="39" filterUnits="userSpaceOnUse" color-interpolation-filters="sRGB">
<feFlood flood-opacity="0" result="BackgroundImageFix"/>
<feColorMatrix in="SourceAlpha" type="matrix" values="0 0 0 0 0 0 0 0 0 0 0 0 0 0 0 0 0 0 127 0" result="hardAlpha"/>
<feOffset dy="4"/>
<feGaussianBlur stdDeviation="2"/>
<feComposite in2="hardAlpha" operator="out"/>
<feColorMatrix type="matrix" values="0 0 0 0 0 0 0 0 0 0 0 0 0 0 0 0 0 0 0.25 0"/>
<feBlend mode="normal" in2="BackgroundImageFix" result="effect1_dropShadow_32_424"/>
<feBlend mode="normal" in="SourceGraphic" in2="effect1_dropShadow_32_424" result="shape"/>
</filter>
<filter id="filter1_d_32_424" x="20.6121" y="65.847" width="93.4661" height="84.3739" filterUnits="userSpaceOnUse" color-interpolation-filters="sRGB">
<feFlood flood-opacity="0" result="BackgroundImageFix"/>
<feColorMatrix in="SourceAlpha" type="matrix" values="0 0 0 0 0 0 0 0 0 0 0 0 0 0 0 0 0 0 127 0" result="hardAlpha"/>
<feOffset dy="4"/>
<feGaussianBlur stdDeviation="2"/>
<feComposite in2="hardAlpha" operator="out"/>
<feColorMatrix type="matrix" values="0 0 0 0 0 0 0 0 0 0 0 0 0 0 0 0 0 0 0.25 0"/>
<feBlend mode="normal" in2="BackgroundImageFix" result="effect1_dropShadow_32_424"/>
<feBlend mode="normal" in="SourceGraphic" in2="effect1_dropShadow_32_424" result="shape"/>
</filter>
</defs>
</svg>
