<svg width="139" height="200" viewBox="0 0 139 200" fill="none" xmlns="http://www.w3.org/2000/svg">
<path d="M0 10C0 4.47716 4.47715 0 10 0H67.5H104L135 31V190C135 195.523 130.523 200 125 200H10C4.47715 200 0 195.523 0 190V10Z" fill="white"/>
<g filter="url(#filter0_d_23_86)">
<path d="M104 0L135 31H114C108.477 31 104 26.5228 104 21V0Z" fill="#CCCCCC"/>
</g>
<path d="M22.8342 187H18.3757L17.2189 183.62H11.0197L9.86299 187H5.5168L11.6936 170.278H16.6574L22.8342 187ZM16.1745 180.554L14.1193 174.557L12.0642 180.554H16.1745ZM35.7649 175.399C35.7649 174.98 35.6788 174.62 35.5066 174.321C35.3344 174.021 35.0387 173.785 34.6194 173.613C34.3274 173.493 33.9868 173.422 33.5975 173.4C33.2081 173.37 32.7552 173.355 32.2386 173.355H30.6775V177.858H32.0027C32.6915 177.858 33.268 177.825 33.7322 177.757C34.1964 177.69 34.5857 177.536 34.9002 177.297C35.1997 177.065 35.4168 176.81 35.5516 176.533C35.6938 176.249 35.7649 175.871 35.7649 175.399ZM42.492 187H37.2249L32.6653 180.868H30.6775V187H26.3875V170.278H33.6199C34.6082 170.278 35.458 170.334 36.1692 170.446C36.8805 170.559 37.5468 170.802 38.1683 171.176C38.7972 171.551 39.2951 172.037 39.6619 172.636C40.0363 173.228 40.2234 173.973 40.2234 174.871C40.2234 176.106 39.9352 177.113 39.3587 177.892C38.7897 178.671 37.9736 179.318 36.9104 179.835L42.492 187ZM53.0868 187.326C51.844 187.326 50.6947 187.142 49.6391 186.775C48.5909 186.409 47.6887 185.862 46.9325 185.136C46.1763 184.41 45.5886 183.504 45.1693 182.418C44.7576 181.332 44.5517 180.078 44.5517 178.656C44.5517 177.331 44.7501 176.129 45.1469 175.051C45.5437 173.973 46.1202 173.048 46.8764 172.277C47.6026 171.536 48.501 170.963 49.5717 170.559C50.6498 170.154 51.8253 169.952 53.098 169.952C53.8018 169.952 54.4345 169.993 54.996 170.076C55.565 170.151 56.0891 170.252 56.5683 170.379C57.0699 170.521 57.5229 170.682 57.9271 170.862C58.3389 171.034 58.6983 171.195 59.0053 171.345V175.399H58.5111C58.3015 175.219 58.0357 175.006 57.7138 174.759C57.3993 174.512 57.0399 174.268 56.6356 174.029C56.2239 173.789 55.7784 173.587 55.2992 173.422C54.8201 173.258 54.3072 173.175 53.7606 173.175C53.1542 173.175 52.5777 173.273 52.0312 173.467C51.4846 173.654 50.9792 173.969 50.515 174.411C50.0733 174.837 49.7139 175.403 49.4369 176.106C49.1674 176.81 49.0326 177.664 49.0326 178.667C49.0326 179.715 49.1786 180.591 49.4706 181.295C49.7701 181.999 50.1444 182.553 50.5937 182.957C51.0504 183.369 51.5595 183.665 52.121 183.844C52.6825 184.016 53.2366 184.103 53.7831 184.103C54.3072 184.103 54.8238 184.024 55.3329 183.867C55.8495 183.709 56.3249 183.496 56.7592 183.227C57.126 183.009 57.4667 182.777 57.7812 182.53C58.0956 182.283 58.3539 182.07 58.5561 181.89H59.0053V185.888C58.586 186.075 58.1854 186.251 57.8036 186.416C57.4218 186.581 57.0212 186.723 56.602 186.843C56.0554 187 55.5425 187.12 55.0634 187.202C54.5842 187.285 53.9254 187.326 53.0868 187.326ZM78.3149 187H74.0024V179.633H67.6348V187H63.3223V170.278H67.6348V176.398H74.0024V170.278H78.3149V187ZM92.7843 187H82.9913V184.035H85.7315V173.243H82.9913V170.278H92.7843V173.243H90.044V184.035H92.7843V187ZM112.611 170.278L106.512 187H101.683L95.5852 170.278H100.111L104.154 182.025L108.197 170.278H112.611ZM128.259 187H116.164V170.278H128.259V173.512H120.454V176.398H127.698V179.633H120.454V183.766H128.259V187Z" fill="#3B3B3B"/>
<g filter="url(#filter1_d_23_86)">
<path d="M17 78.6667C27.6667 78.6667 117 78.6667 117 78.6667V130.389C117 134.224 113.891 137.333 110.056 137.333H23.9444C20.1091 137.333 17 134.224 17 130.389V78.6667Z" fill="#5EADDB"/>
<g filter="url(#filter2_i_23_86)">
<path d="M17 68.9444C17 65.1091 20.1091 62 23.9444 62H53.6667C64.3333 62 56.3333 70.6667 67 70.6667H110.056C113.891 70.6667 117 73.7758 117 77.6111V78.6667H17V68.9444Z" fill="#1889BE"/>
</g>
</g>
<defs>
<filter id="filter0_d_23_86" x="100" y="0" width="39" height="39" filterUnits="userSpaceOnUse" color-interpolation-filters="sRGB">
<feFlood flood-opacity="0" result="BackgroundImageFix"/>
<feColorMatrix in="SourceAlpha" type="matrix" values="0 0 0 0 0 0 0 0 0 0 0 0 0 0 0 0 0 0 127 0" result="hardAlpha"/>
<feOffset dy="4"/>
<feGaussianBlur stdDeviation="2"/>
<feComposite in2="hardAlpha" operator="out"/>
<feColorMatrix type="matrix" values="0 0 0 0 0 0 0 0 0 0 0 0 0 0 0 0 0 0 0.25 0"/>
<feBlend mode="normal" in2="BackgroundImageFix" result="effect1_dropShadow_23_86"/>
<feBlend mode="normal" in="SourceGraphic" in2="effect1_dropShadow_23_86" result="shape"/>
</filter>
<filter id="filter1_d_23_86" x="13" y="62" width="108" height="83.3334" filterUnits="userSpaceOnUse" color-interpolation-filters="sRGB">
<feFlood flood-opacity="0" result="BackgroundImageFix"/>
<feColorMatrix in="SourceAlpha" type="matrix" values="0 0 0 0 0 0 0 0 0 0 0 0 0 0 0 0 0 0 127 0" result="hardAlpha"/>
<feOffset dy="4"/>
<feGaussianBlur stdDeviation="2"/>
<feComposite in2="hardAlpha" operator="out"/>
<feColorMatrix type="matrix" values="0 0 0 0 0 0 0 0 0 0 0 0 0 0 0 0 0 0 0.25 0"/>
<feBlend mode="normal" in2="BackgroundImageFix" result="effect1_dropShadow_23_86"/>
<feBlend mode="normal" in="SourceGraphic" in2="effect1_dropShadow_23_86" result="shape"/>
</filter>
<filter id="filter2_i_23_86" x="17" y="60" width="100" height="18.6666" filterUnits="userSpaceOnUse" color-interpolation-filters="sRGB">
<feFlood flood-opacity="0" result="BackgroundImageFix"/>
<feBlend mode="normal" in="SourceGraphic" in2="BackgroundImageFix" result="shape"/>
<feColorMatrix in="SourceAlpha" type="matrix" values="0 0 0 0 0 0 0 0 0 0 0 0 0 0 0 0 0 0 127 0" result="hardAlpha"/>
<feOffset dy="-2"/>
<feGaussianBlur stdDeviation="1"/>
<feComposite in2="hardAlpha" operator="arithmetic" k2="-1" k3="1"/>
<feColorMatrix type="matrix" values="0 0 0 0 0 0 0 0 0 0 0 0 0 0 0 0 0 0 0.25 0"/>
<feBlend mode="normal" in2="shape" result="effect1_innerShadow_23_86"/>
</filter>
</defs>
</svg>
