<svg width="139" height="200" viewBox="0 0 139 200" fill="none" xmlns="http://www.w3.org/2000/svg">
<path d="M0 10C0 4.47716 4.47715 0 10 0H67.5H104L135 31V190C135 195.523 130.523 200 125 200H10C4.47715 200 0 195.523 0 190V10Z" fill="white"/>
<g filter="url(#filter0_d_33_870)">
<path d="M104 0L135 31H114C108.477 31 104 26.5228 104 21V0Z" fill="#CCCCCC"/>
</g>
<path d="M36.4233 187H31.5771L30.3198 183.326H23.5815L22.3242 187H17.6001L24.314 168.824H29.7095L36.4233 187ZM29.1846 179.993L26.9507 173.475L24.7168 179.993H29.1846ZM56.2036 180.42C56.2036 182.667 55.52 184.388 54.1528 185.584C52.7856 186.78 50.7715 187.378 48.1104 187.378C45.4492 187.378 43.4351 186.78 42.0679 185.584C40.7088 184.388 40.0293 182.671 40.0293 180.433V168.824H44.7412V180.164C44.7412 181.425 45.0057 182.365 45.5347 182.984C46.0636 183.602 46.9222 183.912 48.1104 183.912C49.2822 183.912 50.1367 183.615 50.6738 183.021C51.2191 182.426 51.4917 181.474 51.4917 180.164V168.824H56.2036V180.42ZM79.0234 177.93C79.0234 179.623 78.6369 181.141 77.8638 182.483C77.0907 183.818 76.1141 184.843 74.9341 185.56C74.047 186.097 73.0745 186.471 72.0166 186.683C70.9587 186.894 69.7054 187 68.2568 187H61.8481V168.824H68.4399C69.9211 168.824 71.1987 168.95 72.2729 169.202C73.3472 169.446 74.2505 169.796 74.9829 170.252C76.2362 171.017 77.2209 172.05 77.937 173.353C78.6613 174.646 79.0234 176.172 79.0234 177.93ZM74.1772 177.894C74.1772 176.697 73.9575 175.676 73.5181 174.83C73.0868 173.975 72.3991 173.308 71.4551 172.828C70.9749 172.592 70.4826 172.433 69.978 172.352C69.4816 172.262 68.7288 172.217 67.7197 172.217H66.5356V183.594H67.7197C68.8346 183.594 69.6525 183.545 70.1733 183.448C70.6942 183.342 71.2028 183.155 71.6992 182.886C72.5537 182.398 73.1803 181.747 73.5791 180.933C73.9779 180.111 74.1772 179.098 74.1772 177.894ZM93.6768 187H83.0322V183.777H86.0107V172.046H83.0322V168.824H93.6768V172.046H90.6982V183.777H93.6768V187ZM116.423 177.918C116.423 180.815 115.593 183.118 113.933 184.827C112.273 186.528 109.978 187.378 107.048 187.378C104.127 187.378 101.836 186.528 100.176 184.827C98.5156 183.118 97.6855 180.815 97.6855 177.918C97.6855 174.996 98.5156 172.689 100.176 170.997C101.836 169.296 104.127 168.445 107.048 168.445C109.962 168.445 112.253 169.296 113.921 170.997C115.589 172.689 116.423 174.996 116.423 177.918ZM110.21 182.52C110.666 181.967 111.003 181.316 111.223 180.567C111.443 179.81 111.553 178.923 111.553 177.906C111.553 176.815 111.427 175.888 111.174 175.123C110.922 174.358 110.592 173.739 110.186 173.267C109.771 172.779 109.29 172.425 108.745 172.205C108.208 171.985 107.646 171.875 107.061 171.875C106.466 171.875 105.905 171.981 105.376 172.193C104.855 172.404 104.375 172.754 103.936 173.243C103.529 173.698 103.195 174.329 102.935 175.135C102.682 175.932 102.556 176.86 102.556 177.918C102.556 179 102.678 179.924 102.922 180.689C103.175 181.446 103.504 182.064 103.911 182.544C104.318 183.025 104.794 183.379 105.339 183.606C105.885 183.834 106.458 183.948 107.061 183.948C107.663 183.948 108.236 183.834 108.782 183.606C109.327 183.37 109.803 183.008 110.21 182.52Z" fill="#3B3B3B"/>
<g filter="url(#filter1_d_33_870)">
<line x1="66.969" y1="66.2731" x2="66.969" y2="133.727" stroke="black" stroke-width="6.978" stroke-linecap="round"/>
<line x1="78.599" y1="74.4139" x2="78.599" y2="125.586" stroke="black" stroke-width="6.978" stroke-linecap="round"/>
<line x1="90.229" y1="82.555" x2="90.229" y2="117.445" stroke="black" stroke-width="6.978" stroke-linecap="round"/>
<line x1="55.339" y1="74.4139" x2="55.339" y2="125.586" stroke="black" stroke-width="6.978" stroke-linecap="round"/>
<line x1="43.709" y1="82.555" x2="43.709" y2="117.445" stroke="black" stroke-width="6.978" stroke-linecap="round"/>
<line x1="32.079" y1="90.6959" x2="32.079" y2="109.304" stroke="black" stroke-width="6.978" stroke-linecap="round"/>
<line x1="20.449" y1="98.837" x2="20.449" y2="101.163" stroke="black" stroke-width="6.978" stroke-linecap="round"/>
<line x1="101.859" y1="90.6959" x2="101.859" y2="109.304" stroke="black" stroke-width="6.978" stroke-linecap="round"/>
<line x1="113.489" y1="98.837" x2="113.489" y2="101.163" stroke="black" stroke-width="6.978" stroke-linecap="round"/>
</g>
<defs>
<filter id="filter0_d_33_870" x="100" y="0" width="39" height="39" filterUnits="userSpaceOnUse" color-interpolation-filters="sRGB">
<feFlood flood-opacity="0" result="BackgroundImageFix"/>
<feColorMatrix in="SourceAlpha" type="matrix" values="0 0 0 0 0 0 0 0 0 0 0 0 0 0 0 0 0 0 127 0" result="hardAlpha"/>
<feOffset dy="4"/>
<feGaussianBlur stdDeviation="2"/>
<feComposite in2="hardAlpha" operator="out"/>
<feColorMatrix type="matrix" values="0 0 0 0 0 0 0 0 0 0 0 0 0 0 0 0 0 0 0.25 0"/>
<feBlend mode="normal" in2="BackgroundImageFix" result="effect1_dropShadow_33_870"/>
<feBlend mode="normal" in="SourceGraphic" in2="effect1_dropShadow_33_870" result="shape"/>
</filter>
<filter id="filter1_d_33_870" x="12.308" y="62.7841" width="109.322" height="83.736" filterUnits="userSpaceOnUse" color-interpolation-filters="sRGB">
<feFlood flood-opacity="0" result="BackgroundImageFix"/>
<feColorMatrix in="SourceAlpha" type="matrix" values="0 0 0 0 0 0 0 0 0 0 0 0 0 0 0 0 0 0 127 0" result="hardAlpha"/>
<feOffset dy="4.652"/>
<feGaussianBlur stdDeviation="2.326"/>
<feComposite in2="hardAlpha" operator="out"/>
<feColorMatrix type="matrix" values="0 0 0 0 0 0 0 0 0 0 0 0 0 0 0 0 0 0 0.25 0"/>
<feBlend mode="normal" in2="BackgroundImageFix" result="effect1_dropShadow_33_870"/>
<feBlend mode="normal" in="SourceGraphic" in2="effect1_dropShadow_33_870" result="shape"/>
</filter>
</defs>
</svg>
