<svg width="139" height="200" viewBox="0 0 139 200" fill="none" xmlns="http://www.w3.org/2000/svg">
<path d="M0 10C0 4.47716 4.47715 0 10 0H67.5H104L135 31V190C135 195.523 130.523 200 125 200H10C4.47715 200 0 195.523 0 190V10Z" fill="white"/>
<g filter="url(#filter0_d_37_1096)">
<path d="M104 0L135 31H114C108.477 31 104 26.5228 104 21V0Z" fill="#CCCCCC"/>
</g>
<path d="M49.9658 187.354C48.6149 187.354 47.3657 187.155 46.2183 186.756C45.0789 186.357 44.0983 185.763 43.2764 184.974C42.4544 184.184 41.8156 183.2 41.3599 182.02C40.9123 180.84 40.6885 179.476 40.6885 177.93C40.6885 176.49 40.9041 175.184 41.3354 174.012C41.7668 172.84 42.3934 171.835 43.2153 170.997C44.0047 170.191 44.9813 169.568 46.145 169.129C47.3169 168.689 48.5946 168.47 49.978 168.47C50.743 168.47 51.4307 168.514 52.041 168.604C52.6595 168.685 53.2292 168.795 53.75 168.934C54.2952 169.088 54.7876 169.263 55.2271 169.458C55.6746 169.646 56.0653 169.821 56.3989 169.983V174.39H55.8618C55.634 174.195 55.3451 173.963 54.9951 173.694C54.6533 173.426 54.2627 173.161 53.8232 172.901C53.3757 172.64 52.8914 172.421 52.3706 172.242C51.8498 172.063 51.2923 171.973 50.6982 171.973C50.0391 171.973 49.4124 172.079 48.8184 172.291C48.2243 172.494 47.675 172.836 47.1704 173.316C46.6903 173.78 46.2996 174.394 45.9985 175.159C45.7056 175.924 45.5591 176.852 45.5591 177.942C45.5591 179.082 45.7178 180.034 46.0352 180.799C46.3607 181.564 46.7676 182.166 47.2559 182.605C47.7523 183.053 48.3057 183.375 48.916 183.57C49.5264 183.757 50.1286 183.851 50.7227 183.851C51.2923 183.851 51.8538 183.765 52.4072 183.594C52.9688 183.423 53.4855 183.191 53.9575 182.898C54.3563 182.662 54.7266 182.41 55.0684 182.142C55.4102 181.873 55.6909 181.641 55.9106 181.446H56.3989V185.792C55.9432 185.995 55.5078 186.186 55.0928 186.365C54.6777 186.544 54.2424 186.699 53.7866 186.829C53.1925 187 52.6351 187.13 52.1143 187.22C51.5934 187.309 50.8773 187.354 49.9658 187.354ZM75.6421 181.287C75.6421 183.077 74.8812 184.534 73.3594 185.657C71.8457 186.772 69.7868 187.33 67.1826 187.33C65.6771 187.33 64.3628 187.199 63.2397 186.939C62.1248 186.67 61.0791 186.333 60.1025 185.926V181.568H60.6152C61.5837 182.341 62.666 182.935 63.8623 183.35C65.0667 183.765 66.2223 183.973 67.3291 183.973C67.6139 183.973 67.9883 183.948 68.4521 183.899C68.916 183.851 69.2944 183.769 69.5874 183.655C69.9455 183.509 70.2384 183.326 70.4663 183.106C70.7023 182.886 70.8203 182.561 70.8203 182.129C70.8203 181.731 70.6494 181.389 70.3076 181.104C69.974 180.811 69.4816 180.587 68.8306 180.433C68.147 180.27 67.4227 180.119 66.6577 179.981C65.9009 179.834 65.1888 179.651 64.5215 179.432C62.9915 178.935 61.8888 178.264 61.2134 177.417C60.5461 176.563 60.2124 175.505 60.2124 174.244C60.2124 172.551 60.9692 171.172 62.4829 170.105C64.0047 169.031 65.9578 168.494 68.3423 168.494C69.5386 168.494 70.7186 168.612 71.8823 168.848C73.0542 169.076 74.0674 169.365 74.9219 169.715V173.902H74.4214C73.689 173.316 72.7897 172.828 71.7236 172.437C70.6657 172.038 69.5833 171.839 68.4766 171.839C68.0859 171.839 67.6953 171.867 67.3047 171.924C66.9222 171.973 66.5519 172.071 66.1938 172.217C65.8765 172.339 65.6038 172.527 65.376 172.779C65.1481 173.023 65.0342 173.304 65.0342 173.621C65.0342 174.101 65.2173 174.472 65.5835 174.732C65.9497 174.984 66.6414 175.216 67.6587 175.428C68.326 175.566 68.9648 175.7 69.5752 175.831C70.1937 175.961 70.8569 176.14 71.5649 176.368C72.9565 176.823 73.9819 177.446 74.6411 178.235C75.3084 179.017 75.6421 180.034 75.6421 181.287ZM94.6655 181.287C94.6655 183.077 93.9046 184.534 92.3828 185.657C90.8691 186.772 88.8102 187.33 86.2061 187.33C84.7005 187.33 83.3862 187.199 82.2632 186.939C81.1483 186.67 80.1025 186.333 79.126 185.926V181.568H79.6387C80.6071 182.341 81.6895 182.935 82.8857 183.35C84.0902 183.765 85.2458 183.973 86.3525 183.973C86.6374 183.973 87.0117 183.948 87.4756 183.899C87.9395 183.851 88.3179 183.769 88.6108 183.655C88.9689 183.509 89.2619 183.326 89.4897 183.106C89.7257 182.886 89.8438 182.561 89.8438 182.129C89.8438 181.731 89.6729 181.389 89.3311 181.104C88.9974 180.811 88.505 180.587 87.854 180.433C87.1704 180.27 86.4461 180.119 85.6812 179.981C84.9243 179.834 84.2122 179.651 83.5449 179.432C82.015 178.935 80.9123 178.264 80.2368 177.417C79.5695 176.563 79.2358 175.505 79.2358 174.244C79.2358 172.551 79.9927 171.172 81.5063 170.105C83.0282 169.031 84.9813 168.494 87.3657 168.494C88.562 168.494 89.742 168.612 90.9058 168.848C92.0776 169.076 93.0908 169.365 93.9453 169.715V173.902H93.4448C92.7124 173.316 91.8132 172.828 90.7471 172.437C89.6891 172.038 88.6068 171.839 87.5 171.839C87.1094 171.839 86.7188 171.867 86.3281 171.924C85.9456 171.973 85.5754 172.071 85.2173 172.217C84.8999 172.339 84.6273 172.527 84.3994 172.779C84.1715 173.023 84.0576 173.304 84.0576 173.621C84.0576 174.101 84.2407 174.472 84.6069 174.732C84.9731 174.984 85.6649 175.216 86.6821 175.428C87.3494 175.566 87.9883 175.7 88.5986 175.831C89.2171 175.961 89.8804 176.14 90.5884 176.368C91.98 176.823 93.0054 177.446 93.6646 178.235C94.3319 179.017 94.6655 180.034 94.6655 181.287Z" fill="#3B3B3B"/>
<g filter="url(#filter1_d_37_1096)">
<rect x="17" y="50" width="100" height="100" rx="10" fill="#663399"/>
<g filter="url(#filter2_d_37_1096)">
<path d="M67.32 130.82V133.46C67.32 134.78 67.06 136.04 66.54 137.24C66.06 138.4 65.38 139.44 64.5 140.36C63.62 141.28 62.58 142.02 61.38 142.58C60.22 143.1 58.96 143.36 57.6 143.36C56.44 143.36 55.26 143.2 54.06 142.88C52.86 142.56 51.78 142 50.82 141.2C49.86 140.4 49.06 139.38 48.42 138.14C47.82 136.86 47.52 135.24 47.52 133.28V109.76C47.52 108.36 47.76 107.06 48.24 105.86C48.72 104.66 49.4 103.62 50.28 102.74C51.16 101.86 52.2 101.18 53.4 100.7C54.64 100.18 56 99.92 57.48 99.92C60.36 99.92 62.7 100.86 64.5 102.74C65.38 103.66 66.06 104.76 66.54 106.04C67.06 107.28 67.32 108.64 67.32 110.12V112.52H61.2V110.48C61.2 109.28 60.86 108.24 60.18 107.36C59.5 106.48 58.58 106.04 57.42 106.04C55.9 106.04 54.88 106.52 54.36 107.48C53.88 108.4 53.64 109.58 53.64 111.02V132.86C53.64 134.1 53.9 135.14 54.42 135.98C54.98 136.82 55.96 137.24 57.36 137.24C57.76 137.24 58.18 137.18 58.62 137.06C59.1 136.9 59.54 136.66 59.94 136.34C60.3 136.02 60.6 135.58 60.84 135.02C61.08 134.46 61.2 133.76 61.2 132.92V130.82H67.32ZM90.3136 112.58H84.1936V111.2C84.1936 109.8 83.8536 108.6 83.1736 107.6C82.5336 106.56 81.4336 106.04 79.8736 106.04C79.0336 106.04 78.3536 106.2 77.8336 106.52C77.3136 106.84 76.8936 107.24 76.5736 107.72C76.2536 108.24 76.0336 108.84 75.9136 109.52C75.7936 110.16 75.7336 110.84 75.7336 111.56C75.7336 112.4 75.7536 113.1 75.7936 113.66C75.8736 114.22 76.0336 114.72 76.2736 115.16C76.5136 115.6 76.8536 115.98 77.2936 116.3C77.7736 116.62 78.4136 116.94 79.2136 117.26L83.8936 119.12C85.2536 119.64 86.3536 120.26 87.1936 120.98C88.0336 121.66 88.6936 122.46 89.1736 123.38C89.6136 124.34 89.9136 125.44 90.0736 126.68C90.2336 127.88 90.3136 129.26 90.3136 130.82C90.3136 132.62 90.1336 134.3 89.7736 135.86C89.4136 137.38 88.8336 138.68 88.0336 139.76C87.1936 140.88 86.0936 141.76 84.7336 142.4C83.3736 143.04 81.7136 143.36 79.7536 143.36C78.2736 143.36 76.8936 143.1 75.6136 142.58C74.3336 142.06 73.2336 141.34 72.3136 140.42C71.3936 139.5 70.6536 138.44 70.0936 137.24C69.5736 136 69.3136 134.66 69.3136 133.22V130.94H75.4336V132.86C75.4336 133.98 75.7536 135 76.3936 135.92C77.0736 136.8 78.1936 137.24 79.7536 137.24C80.7936 137.24 81.5936 137.1 82.1536 136.82C82.7536 136.5 83.2136 136.06 83.5336 135.5C83.8536 134.94 84.0336 134.28 84.0736 133.52C84.1536 132.72 84.1936 131.84 84.1936 130.88C84.1936 129.76 84.1536 128.84 84.0736 128.12C83.9936 127.4 83.8336 126.82 83.5936 126.38C83.3136 125.94 82.9336 125.58 82.4536 125.3C82.0136 125.02 81.4136 124.72 80.6536 124.4L76.2736 122.6C73.6336 121.52 71.8536 120.1 70.9336 118.34C70.0536 116.54 69.6136 114.3 69.6136 111.62C69.6136 110.02 69.8336 108.5 70.2736 107.06C70.7136 105.62 71.3736 104.38 72.2536 103.34C73.0936 102.3 74.1536 101.48 75.4336 100.88C76.7536 100.24 78.3136 99.92 80.1136 99.92C81.6336 99.92 83.0136 100.2 84.2536 100.76C85.5336 101.32 86.6336 102.06 87.5536 102.98C89.3936 104.9 90.3136 107.1 90.3136 109.58V112.58ZM112.889 112.58H106.769V111.2C106.769 109.8 106.429 108.6 105.749 107.6C105.109 106.56 104.009 106.04 102.449 106.04C101.609 106.04 100.929 106.2 100.409 106.52C99.8886 106.84 99.4686 107.24 99.1486 107.72C98.8286 108.24 98.6086 108.84 98.4886 109.52C98.3686 110.16 98.3086 110.84 98.3086 111.56C98.3086 112.4 98.3286 113.1 98.3686 113.66C98.4486 114.22 98.6086 114.72 98.8486 115.16C99.0886 115.6 99.4286 115.98 99.8686 116.3C100.349 116.62 100.989 116.94 101.789 117.26L106.469 119.12C107.829 119.64 108.929 120.26 109.769 120.98C110.609 121.66 111.269 122.46 111.749 123.38C112.189 124.34 112.489 125.44 112.649 126.68C112.809 127.88 112.889 129.26 112.889 130.82C112.889 132.62 112.709 134.3 112.349 135.86C111.989 137.38 111.409 138.68 110.609 139.76C109.769 140.88 108.669 141.76 107.309 142.4C105.949 143.04 104.289 143.36 102.329 143.36C100.849 143.36 99.4686 143.1 98.1886 142.58C96.9086 142.06 95.8086 141.34 94.8886 140.42C93.9686 139.5 93.2286 138.44 92.6686 137.24C92.1486 136 91.8886 134.66 91.8886 133.22V130.94H98.0086V132.86C98.0086 133.98 98.3286 135 98.9686 135.92C99.6486 136.8 100.769 137.24 102.329 137.24C103.369 137.24 104.169 137.1 104.729 136.82C105.329 136.5 105.789 136.06 106.109 135.5C106.429 134.94 106.609 134.28 106.649 133.52C106.729 132.72 106.769 131.84 106.769 130.88C106.769 129.76 106.729 128.84 106.649 128.12C106.569 127.4 106.409 126.82 106.169 126.38C105.889 125.94 105.509 125.58 105.029 125.3C104.589 125.02 103.989 124.72 103.229 124.4L98.8486 122.6C96.2086 121.52 94.4286 120.1 93.5086 118.34C92.6286 116.54 92.1886 114.3 92.1886 111.62C92.1886 110.02 92.4086 108.5 92.8486 107.06C93.2886 105.62 93.9486 104.38 94.8286 103.34C95.6686 102.3 96.7286 101.48 98.0086 100.88C99.3286 100.24 100.889 99.92 102.689 99.92C104.209 99.92 105.589 100.2 106.829 100.76C108.109 101.32 109.209 102.06 110.129 102.98C111.969 104.9 112.889 107.1 112.889 109.58V112.58Z" fill="white"/>
</g>
</g>
<defs>
<filter id="filter0_d_37_1096" x="100" y="0" width="39" height="39" filterUnits="userSpaceOnUse" color-interpolation-filters="sRGB">
<feFlood flood-opacity="0" result="BackgroundImageFix"/>
<feColorMatrix in="SourceAlpha" type="matrix" values="0 0 0 0 0 0 0 0 0 0 0 0 0 0 0 0 0 0 127 0" result="hardAlpha"/>
<feOffset dy="4"/>
<feGaussianBlur stdDeviation="2"/>
<feComposite in2="hardAlpha" operator="out"/>
<feColorMatrix type="matrix" values="0 0 0 0 0 0 0 0 0 0 0 0 0 0 0 0 0 0 0.25 0"/>
<feBlend mode="normal" in2="BackgroundImageFix" result="effect1_dropShadow_37_1096"/>
<feBlend mode="normal" in="SourceGraphic" in2="effect1_dropShadow_37_1096" result="shape"/>
</filter>
<filter id="filter1_d_37_1096" x="13" y="50" width="108" height="108" filterUnits="userSpaceOnUse" color-interpolation-filters="sRGB">
<feFlood flood-opacity="0" result="BackgroundImageFix"/>
<feColorMatrix in="SourceAlpha" type="matrix" values="0 0 0 0 0 0 0 0 0 0 0 0 0 0 0 0 0 0 127 0" result="hardAlpha"/>
<feOffset dy="4"/>
<feGaussianBlur stdDeviation="2"/>
<feComposite in2="hardAlpha" operator="out"/>
<feColorMatrix type="matrix" values="0 0 0 0 0 0 0 0 0 0 0 0 0 0 0 0 0 0 0.25 0"/>
<feBlend mode="normal" in2="BackgroundImageFix" result="effect1_dropShadow_37_1096"/>
<feBlend mode="normal" in="SourceGraphic" in2="effect1_dropShadow_37_1096" result="shape"/>
</filter>
<filter id="filter2_d_37_1096" x="43.52" y="99.92" width="73.3686" height="51.44" filterUnits="userSpaceOnUse" color-interpolation-filters="sRGB">
<feFlood flood-opacity="0" result="BackgroundImageFix"/>
<feColorMatrix in="SourceAlpha" type="matrix" values="0 0 0 0 0 0 0 0 0 0 0 0 0 0 0 0 0 0 127 0" result="hardAlpha"/>
<feOffset dy="4"/>
<feGaussianBlur stdDeviation="2"/>
<feComposite in2="hardAlpha" operator="out"/>
<feColorMatrix type="matrix" values="0 0 0 0 0 0 0 0 0 0 0 0 0 0 0 0 0 0 0.25 0"/>
<feBlend mode="normal" in2="BackgroundImageFix" result="effect1_dropShadow_37_1096"/>
<feBlend mode="normal" in="SourceGraphic" in2="effect1_dropShadow_37_1096" result="shape"/>
</filter>
</defs>
</svg>
