<svg width="139" height="200" viewBox="0 0 139 200" fill="none" xmlns="http://www.w3.org/2000/svg">
<path d="M0 10C0 4.47716 4.47715 0 10 0H67.5H104L135 31V190C135 195.523 130.523 200 125 200H10C4.47715 200 0 195.523 0 190V10Z" fill="white"/>
<g filter="url(#filter0_d_27_359)">
<path d="M104 0L135 31H114C108.477 31 104 26.5228 104 21V0Z" fill="#CCCCCC"/>
</g>
<path d="M65.9722 177.93C65.9722 179.623 65.5856 181.141 64.8125 182.483C64.0394 183.818 63.0628 184.843 61.8828 185.56C60.9958 186.097 60.0233 186.471 58.9653 186.683C57.9074 186.894 56.6541 187 55.2056 187H48.7969V168.824H55.3887C56.8698 168.824 58.1475 168.95 59.2217 169.202C60.2959 169.446 61.1992 169.796 61.9316 170.252C63.1849 171.017 64.1696 172.05 64.8857 173.353C65.61 174.646 65.9722 176.172 65.9722 177.93ZM61.126 177.894C61.126 176.697 60.9062 175.676 60.4668 174.83C60.0355 173.975 59.3478 173.308 58.4038 172.828C57.9237 172.592 57.4313 172.433 56.9268 172.352C56.4303 172.262 55.6776 172.217 54.6685 172.217H53.4844V183.594H54.6685C55.7834 183.594 56.6012 183.545 57.1221 183.448C57.6429 183.342 58.1515 183.155 58.6479 182.886C59.5024 182.398 60.1291 181.747 60.5278 180.933C60.9266 180.111 61.126 179.098 61.126 177.894ZM86.3506 181.434C86.3506 182.312 86.1715 183.098 85.8135 183.79C85.4635 184.481 84.9793 185.055 84.3608 185.511C83.6447 186.048 82.8553 186.43 81.9927 186.658C81.1382 186.886 80.0518 187 78.7334 187H70.7988V168.824H77.8545C79.3193 168.824 80.3895 168.873 81.0649 168.97C81.7485 169.068 82.424 169.284 83.0913 169.617C83.783 169.967 84.2957 170.439 84.6294 171.033C84.9712 171.619 85.1421 172.291 85.1421 173.047C85.1421 173.926 84.9102 174.703 84.4463 175.379C83.9824 176.046 83.3273 176.567 82.481 176.941V177.039C83.6691 177.275 84.609 177.763 85.3008 178.504C86.0007 179.244 86.3506 180.221 86.3506 181.434ZM80.3447 173.963C80.3447 173.662 80.2674 173.361 80.1128 173.06C79.9663 172.758 79.7018 172.535 79.3193 172.388C78.9775 172.258 78.5503 172.189 78.0376 172.181C77.533 172.164 76.821 172.156 75.9014 172.156H75.4619V176.001H76.1943C76.9349 176.001 77.5656 175.989 78.0864 175.965C78.6073 175.94 79.0182 175.859 79.3193 175.721C79.7425 175.534 80.0192 175.293 80.1494 175C80.2796 174.699 80.3447 174.354 80.3447 173.963ZM81.4922 181.36C81.4922 180.783 81.3783 180.339 81.1504 180.03C80.9307 179.712 80.5522 179.476 80.0151 179.322C79.6489 179.216 79.1444 179.159 78.5015 179.151C77.8586 179.143 77.1872 179.139 76.4873 179.139H75.4619V183.667H75.8037C77.1221 183.667 78.0661 183.663 78.6357 183.655C79.2054 183.647 79.7303 183.541 80.2104 183.338C80.6987 183.134 81.0324 182.866 81.2114 182.532C81.3986 182.19 81.4922 181.8 81.4922 181.36Z" fill="#3B3B3B"/>
<g filter="url(#filter1_d_27_359)">
<path d="M19.0725 69.8808H114.927V134.13L92.6477 139.311L67 139.829L41.6114 138.793L19.0725 134.13V69.8808Z" fill="#A95A5A"/>
<path d="M67 103.559C80.7682 103.559 93.2088 104.485 102.186 105.974C106.682 106.719 110.261 107.599 112.692 108.552C113.913 109.03 114.784 109.504 115.332 109.948C115.893 110.402 115.964 110.696 115.964 110.813C115.964 110.931 115.893 111.225 115.332 111.68C114.784 112.123 113.913 112.598 112.692 113.076C110.261 114.029 106.682 114.908 102.186 115.653C93.2088 117.142 80.7683 118.067 67 118.067C53.2317 118.067 40.7912 117.142 31.8145 115.653C27.3179 114.908 23.7387 114.029 21.3076 113.076C20.0869 112.598 19.2155 112.123 18.668 111.68C18.1069 111.225 18.0361 110.931 18.0361 110.813C18.0362 110.696 18.1073 110.402 18.668 109.948C19.2155 109.504 20.0868 109.03 21.3076 108.552C23.7387 107.599 27.3178 106.719 31.8145 105.974C40.7912 104.485 53.2318 103.559 67 103.559Z" stroke="#5F3131" stroke-width="2.07254"/>
<path d="M67 125.321C80.7682 125.321 93.2088 126.247 102.186 127.735C106.682 128.481 110.261 129.36 112.692 130.313C113.913 130.792 114.784 131.266 115.332 131.71C115.893 132.164 115.964 132.458 115.964 132.575C115.964 132.692 115.893 132.987 115.332 133.441C114.784 133.885 113.913 134.359 112.692 134.838C110.261 135.791 106.682 136.669 102.186 137.415C93.2088 138.903 80.7683 139.829 67 139.829C53.2317 139.829 40.7912 138.903 31.8145 137.415C27.3179 136.669 23.7387 135.791 21.3076 134.838C20.0869 134.359 19.2155 133.885 18.668 133.441C18.1069 132.987 18.0361 132.692 18.0361 132.575C18.0362 132.458 18.1073 132.164 18.668 131.71C19.2155 131.266 20.0868 130.792 21.3076 130.313C23.7387 129.36 27.3178 128.481 31.8145 127.735C40.7912 126.247 53.2318 125.321 67 125.321Z" stroke="#5F3131" stroke-width="2.07254"/>
<path d="M67 81.7978C80.7682 81.7978 93.2088 82.7235 102.186 84.2119C106.682 84.9574 110.261 85.837 112.692 86.79C113.913 87.2685 114.784 87.7428 115.332 88.1865C115.893 88.6408 115.964 88.9342 115.964 89.0517C115.964 89.1691 115.893 89.4633 115.332 89.9179C114.784 90.3616 113.913 90.8359 112.692 91.3144C110.261 92.2673 106.682 93.146 102.186 93.8915C93.2088 95.3799 80.7683 96.3056 67 96.3056C53.2317 96.3056 40.7912 95.3799 31.8145 93.8915C27.3179 93.146 23.7387 92.2673 21.3076 91.3144C20.0869 90.8359 19.2155 90.3616 18.668 89.9179C18.1069 89.4633 18.0361 89.1691 18.0361 89.0517C18.0362 88.9342 18.1073 88.6408 18.668 88.1865C19.2155 87.7428 20.0868 87.2685 21.3076 86.79C23.7387 85.837 27.3178 84.9574 31.8145 84.2119C40.7912 82.7235 53.2318 81.7978 67 81.7978Z" stroke="#5F3131" stroke-width="2.07254"/>
<mask id="path-8-inside-1_27_359" fill="white">
<path d="M17 67.2902H117V132.575H17V67.2902Z"/>
</mask>
<path d="M117 67.2902H114.927V132.575H117H119.073V67.2902H117ZM17 132.575H19.0725V67.2902H17H14.9275V132.575H17Z" fill="#5F3131" mask="url(#path-8-inside-1_27_359)"/>
<ellipse cx="67" cy="67.2902" rx="50" ry="8.29016" fill="#5F3131"/>
<path d="M19.0725 80.7617H114.927V88.7927L114.753 89.0518H19.2486L19.0725 88.7927V80.7617Z" fill="#A95A5A"/>
<path d="M19.0725 102.523H114.927V110.554L114.753 110.813H19.2371L19.0725 110.554V102.523Z" fill="#A95A5A"/>
<path d="M19.0725 124.285H114.927V132.316L114.757 132.575H19.2547L19.0725 132.057V124.285Z" fill="#A95A5A"/>
<circle cx="28.399" cy="104.078" r="2.59067" fill="#5F3131"/>
<circle cx="28.399" cy="125.839" r="2.59067" fill="#5F3131"/>
<circle cx="28.399" cy="82.316" r="2.59067" fill="#5F3131"/>
</g>
<defs>
<filter id="filter0_d_27_359" x="100" y="0" width="39" height="39" filterUnits="userSpaceOnUse" color-interpolation-filters="sRGB">
<feFlood flood-opacity="0" result="BackgroundImageFix"/>
<feColorMatrix in="SourceAlpha" type="matrix" values="0 0 0 0 0 0 0 0 0 0 0 0 0 0 0 0 0 0 127 0" result="hardAlpha"/>
<feOffset dy="4"/>
<feGaussianBlur stdDeviation="2"/>
<feComposite in2="hardAlpha" operator="out"/>
<feColorMatrix type="matrix" values="0 0 0 0 0 0 0 0 0 0 0 0 0 0 0 0 0 0 0.25 0"/>
<feBlend mode="normal" in2="BackgroundImageFix" result="effect1_dropShadow_27_359"/>
<feBlend mode="normal" in="SourceGraphic" in2="effect1_dropShadow_27_359" result="shape"/>
</filter>
<filter id="filter1_d_27_359" x="13" y="59" width="108" height="89.8653" filterUnits="userSpaceOnUse" color-interpolation-filters="sRGB">
<feFlood flood-opacity="0" result="BackgroundImageFix"/>
<feColorMatrix in="SourceAlpha" type="matrix" values="0 0 0 0 0 0 0 0 0 0 0 0 0 0 0 0 0 0 127 0" result="hardAlpha"/>
<feOffset dy="4"/>
<feGaussianBlur stdDeviation="2"/>
<feComposite in2="hardAlpha" operator="out"/>
<feColorMatrix type="matrix" values="0 0 0 0 0 0 0 0 0 0 0 0 0 0 0 0 0 0 0.25 0"/>
<feBlend mode="normal" in2="BackgroundImageFix" result="effect1_dropShadow_27_359"/>
<feBlend mode="normal" in="SourceGraphic" in2="effect1_dropShadow_27_359" result="shape"/>
</filter>
</defs>
</svg>
