<svg width="139" height="200" viewBox="0 0 139 200" fill="none" xmlns="http://www.w3.org/2000/svg">
<path d="M0 10C0 4.47716 4.47715 0 10 0H67.5H104L135 31V190C135 195.523 130.523 200 125 200H10C4.47715 200 0 195.523 0 190V10Z" fill="white"/>
<g filter="url(#filter0_d_15_92)">
<path d="M104 0L135 31H114C108.477 31 104 26.5228 104 21V0Z" fill="#CCCCCC"/>
</g>
<path d="M27.1069 168.824L20.4785 187H15.2295L8.60107 168.824H13.5205L17.915 181.592L22.3096 168.824H27.1069ZM44.1162 187H30.9692V168.824H44.1162V172.339H35.6323V175.477H43.5059V178.992H35.6323V183.484H44.1162V187ZM57.5244 187.354C56.1735 187.354 54.9243 187.155 53.7769 186.756C52.6375 186.357 51.6569 185.763 50.835 184.974C50.013 184.184 49.3742 183.2 48.9185 182.02C48.4709 180.84 48.2471 179.476 48.2471 177.93C48.2471 176.49 48.4627 175.184 48.894 174.012C49.3254 172.84 49.952 171.835 50.7739 170.997C51.5633 170.191 52.5399 169.568 53.7036 169.129C54.8755 168.689 56.1532 168.47 57.5366 168.47C58.3016 168.47 58.9893 168.514 59.5996 168.604C60.2181 168.685 60.7878 168.795 61.3086 168.934C61.8538 169.088 62.3462 169.263 62.7856 169.458C63.2332 169.646 63.6239 169.821 63.9575 169.983V174.39H63.4204C63.1925 174.195 62.9036 173.963 62.5537 173.694C62.2119 173.426 61.8213 173.161 61.3818 172.901C60.9342 172.64 60.45 172.421 59.9292 172.242C59.4084 172.063 58.8509 171.973 58.2568 171.973C57.5977 171.973 56.971 172.079 56.377 172.291C55.7829 172.494 55.2336 172.836 54.729 173.316C54.2489 173.78 53.8582 174.394 53.5571 175.159C53.2642 175.924 53.1177 176.852 53.1177 177.942C53.1177 179.082 53.2764 180.034 53.5938 180.799C53.9193 181.564 54.3262 182.166 54.8145 182.605C55.3109 183.053 55.8643 183.375 56.4746 183.57C57.085 183.757 57.6872 183.851 58.2812 183.851C58.8509 183.851 59.4124 183.765 59.9658 183.594C60.5273 183.423 61.0441 183.191 61.5161 182.898C61.9149 182.662 62.2852 182.41 62.627 182.142C62.9688 181.873 63.2495 181.641 63.4692 181.446H63.9575V185.792C63.5018 185.995 63.0664 186.186 62.6514 186.365C62.2363 186.544 61.8009 186.699 61.3452 186.829C60.7511 187 60.1937 187.13 59.6729 187.22C59.152 187.309 58.4359 187.354 57.5244 187.354ZM82.8711 172.339H77.1948V187H72.5073V172.339H66.8311V168.824H82.8711V172.339ZM104.617 177.918C104.617 180.815 103.787 183.118 102.126 184.827C100.466 186.528 98.1714 187.378 95.2417 187.378C92.3201 187.378 90.0293 186.528 88.3691 184.827C86.709 183.118 85.8789 180.815 85.8789 177.918C85.8789 174.996 86.709 172.689 88.3691 170.997C90.0293 169.296 92.3201 168.445 95.2417 168.445C98.1551 168.445 100.446 169.296 102.114 170.997C103.783 172.689 104.617 174.996 104.617 177.918ZM98.4033 182.52C98.859 181.967 99.1968 181.316 99.4165 180.567C99.6362 179.81 99.7461 178.923 99.7461 177.906C99.7461 176.815 99.62 175.888 99.3677 175.123C99.1154 174.358 98.7858 173.739 98.3789 173.267C97.9639 172.779 97.4837 172.425 96.9385 172.205C96.4014 171.985 95.8398 171.875 95.2539 171.875C94.6598 171.875 94.0983 171.981 93.5693 172.193C93.0485 172.404 92.5684 172.754 92.1289 173.243C91.722 173.698 91.3883 174.329 91.1279 175.135C90.8757 175.932 90.7495 176.86 90.7495 177.918C90.7495 179 90.8716 179.924 91.1157 180.689C91.368 181.446 91.6976 182.064 92.1045 182.544C92.5114 183.025 92.9875 183.379 93.5327 183.606C94.078 183.834 94.6517 183.948 95.2539 183.948C95.8561 183.948 96.4299 183.834 96.9751 183.606C97.5203 183.37 97.9964 183.008 98.4033 182.52ZM119.648 174.39C119.648 173.934 119.555 173.544 119.368 173.218C119.181 172.893 118.859 172.636 118.403 172.449C118.086 172.319 117.716 172.242 117.292 172.217C116.869 172.185 116.377 172.168 115.815 172.168H114.119V177.063H115.559C116.308 177.063 116.934 177.027 117.439 176.954C117.944 176.88 118.367 176.714 118.708 176.453C119.034 176.201 119.27 175.924 119.417 175.623C119.571 175.314 119.648 174.903 119.648 174.39ZM126.96 187H121.235L116.279 180.335H114.119V187H109.456V168.824H117.317C118.391 168.824 119.315 168.885 120.088 169.007C120.861 169.129 121.585 169.393 122.261 169.8C122.944 170.207 123.486 170.736 123.884 171.387C124.291 172.03 124.495 172.84 124.495 173.816C124.495 175.159 124.181 176.254 123.555 177.1C122.936 177.946 122.049 178.65 120.894 179.212L126.96 187Z" fill="#3B3B3B"/>
<g filter="url(#filter1_d_15_92)">
<path d="M81.4923 51.5803C80.6571 50.3212 81.8228 48.6294 83.2312 49.1767C102.26 56.5712 115.751 75.0791 115.751 96.7427C115.751 124.913 92.9402 147.75 64.8025 147.75C43.1643 147.75 24.6778 134.245 17.2916 115.194C16.7452 113.785 18.4388 112.62 19.6976 113.457C26.753 118.146 35.2172 120.878 44.3201 120.878C68.9462 120.878 88.9099 100.891 88.9099 76.2368C88.9099 67.1209 86.1782 58.645 81.4923 51.5803Z" fill="#DBA2FA"/>
<path d="M47.3465 56.4548C48.1623 55.3437 49.9154 55.7849 50.1095 57.1501L51.996 70.421C52.0542 70.8304 52.2747 71.1992 52.6078 71.4443L63.3995 79.3861C64.5093 80.2028 64.0695 81.9543 62.7059 82.1486L49.446 84.038C49.0368 84.0963 48.6683 84.3169 48.4237 84.6501L40.4937 95.4507C39.6779 96.5618 37.9249 96.1207 37.7308 94.7554L35.8442 81.4846C35.786 81.0752 35.5655 80.7063 35.2325 80.4612L24.4408 72.5194C23.331 71.7027 23.7707 69.9512 25.1343 69.7569L38.3943 67.8676C38.8035 67.8092 39.1719 67.5886 39.4166 67.2554L47.3465 56.4548Z" fill="#DBA2FA"/>
</g>
<defs>
<filter id="filter0_d_15_92" x="100" y="0" width="39" height="39" filterUnits="userSpaceOnUse" color-interpolation-filters="sRGB">
<feFlood flood-opacity="0" result="BackgroundImageFix"/>
<feColorMatrix in="SourceAlpha" type="matrix" values="0 0 0 0 0 0 0 0 0 0 0 0 0 0 0 0 0 0 127 0" result="hardAlpha"/>
<feOffset dy="4"/>
<feGaussianBlur stdDeviation="2"/>
<feComposite in2="hardAlpha" operator="out"/>
<feColorMatrix type="matrix" values="0 0 0 0 0 0 0 0 0 0 0 0 0 0 0 0 0 0 0.25 0"/>
<feBlend mode="normal" in2="BackgroundImageFix" result="effect1_dropShadow_15_92"/>
<feBlend mode="normal" in="SourceGraphic" in2="effect1_dropShadow_15_92" result="shape"/>
</filter>
<filter id="filter1_d_15_92" x="12.7895" y="49" width="107.172" height="107.172" filterUnits="userSpaceOnUse" color-interpolation-filters="sRGB">
<feFlood flood-opacity="0" result="BackgroundImageFix"/>
<feColorMatrix in="SourceAlpha" type="matrix" values="0 0 0 0 0 0 0 0 0 0 0 0 0 0 0 0 0 0 127 0" result="hardAlpha"/>
<feOffset dy="4.21053"/>
<feGaussianBlur stdDeviation="2.10526"/>
<feComposite in2="hardAlpha" operator="out"/>
<feColorMatrix type="matrix" values="0 0 0 0 0 0 0 0 0 0 0 0 0 0 0 0 0 0 0.25 0"/>
<feBlend mode="normal" in2="BackgroundImageFix" result="effect1_dropShadow_15_92"/>
<feBlend mode="normal" in="SourceGraphic" in2="effect1_dropShadow_15_92" result="shape"/>
</filter>
</defs>
</svg>
