<svg width="200" height="150" viewBox="0 0 200 150" fill="none" xmlns="http://www.w3.org/2000/svg">
<mask id="path-1-inside-1_41_507" fill="white">
<path d="M200 135C200 143.284 193.284 150 185 150H15C6.71573 150 0 143.284 0 135V15C0 6.71573 6.71573 0 15 0H73.333C94.6663 0 78.6667 22.2344 100 22.2344H185C193.284 22.2344 200 28.9501 200 37.2344V135Z"/>
</mask>
<path d="M185 150V135H15V150V165H185V150ZM0 135H15V15H0H-15V135H0ZM15 0V15H73.333V0V-15H15V0ZM73.333 0V15C76.03 15 74.1967 15.6093 72.2364 13.3806C71.1825 12.1823 71.2258 11.0538 72.0803 14.6162C72.5592 16.6124 73.8493 23.2995 78.57 28.6667C84.1969 35.0644 92.0303 37.2344 100 37.2344V22.2344V7.23438C97.303 7.23438 99.1363 6.62506 101.097 8.8538C102.15 10.0521 102.107 11.1806 101.253 7.6182C100.774 5.62197 99.4837 -1.06514 94.763 -6.43234C89.1361 -12.83 81.3027 -15 73.333 -15V0ZM100 22.2344V37.2344H185V22.2344V7.23438H100V22.2344ZM200 37.2344H185V135H200H215V37.2344H200ZM0 15H15L15 15V0V-15C-1.56855 -15 -15 -1.56853 -15 15H0ZM15 150V135L15 135H0H-15C-15 151.569 -1.56855 165 15 165V150ZM185 22.2344V37.2344L185 37.2344H200H215C215 20.6658 201.569 7.23438 185 7.23438V22.2344ZM185 150V165C201.569 165 215 151.569 215 135H200H185L185 135V150Z" fill="black" mask="url(#path-1-inside-1_41_507)"/>
</svg>
