<svg width="225" height="150" viewBox="0 0 225 150" fill="none" xmlns="http://www.w3.org/2000/svg">
<path d="M209.261 59C219.478 59 226.706 68.9925 223.507 78.6963L203.396 139.696C201.433 145.653 195.981 149.739 189.756 149.988L189.151 150H77.7393L77.2627 149.993C70.7799 149.795 65.572 145.563 63.5908 140H112V135H189.151L209.261 74H97.8486L95.541 81H95.459C94.7193 84.1402 91.7225 86.4902 88.1357 86.4902C83.9938 86.49 80.6357 83.3561 80.6357 79.4902C80.6358 78.8722 80.7226 78.273 80.8838 77.7021L80.8486 77.6904H80.8379L83.6035 69.3037C85.6307 63.1547 91.3741 59.0002 97.8486 59H209.261Z" fill="black"/>
<path d="M73.333 0C94.6663 0 78.6667 22.2344 100 22.2344H185C193.284 22.2344 200 28.9501 200 37.2344V69H185V37.2344H100C92.0304 37.2344 84.1973 35.0644 78.5703 28.667C74.1173 23.604 72.7154 17.3665 72.1689 15H15V135H179V140H199.146C197.128 145.711 191.75 149.834 185.387 149.995L185 150H15L14.6133 149.995C6.63625 149.793 0.206753 143.364 0.00488281 135.387L0 135V15C1.90261e-06 6.84503 6.50774 0.210005 14.6133 0.00488281L15 0H73.333Z" fill="black"/>
</svg>
