<svg width="326" height="326" viewBox="0 0 326 326" fill="none" xmlns="http://www.w3.org/2000/svg">
<path d="M213.932 12.454C211.215 8.36208 215.003 2.86088 219.582 4.6382C281.497 28.6728 325.39 88.8257 325.39 159.233C325.39 250.791 251.167 325.014 159.61 325.014C89.2019 325.014 29.0482 281.12 5.01354 219.206C3.23621 214.627 8.73743 210.839 12.8293 213.555C35.7903 228.797 63.3399 237.677 92.9642 237.677C173.095 237.677 238.053 172.718 238.053 92.588C238.053 62.9639 229.173 35.4147 213.932 12.454Z" fill="#DBA2FA"/>
<path d="M102.821 28.2792C105.474 24.6702 111.169 26.1016 111.8 30.536L117.941 73.684C118.13 75.0142 118.847 76.2123 119.929 77.0081L155.046 102.821C158.655 105.474 157.223 111.169 152.789 111.8L109.641 117.941C108.311 118.13 107.113 118.847 106.317 119.929L80.5041 155.046C77.8513 158.655 72.1564 157.223 71.5252 152.789L65.3843 109.641C65.195 108.311 64.4782 107.113 63.3955 106.317L28.2792 80.5041C24.6702 77.8513 26.1016 72.1564 30.536 71.5253L73.684 65.3843C75.0142 65.195 76.2123 64.4782 77.0081 63.3955L102.821 28.2792Z" fill="#DBA2FA"/>
</svg>
